<svg width="305" height="81" viewBox="0 0 305 81" fill="none" xmlns="http://www.w3.org/2000/svg">
<path d="M51.5744 20.6205C49.55 19.5368 47.0346 20.2894 45.9522 22.3063C45.9021 22.4067 45.8721 22.507 45.8219 22.6073L32.964 46.5191C29.4665 53.0314 21.5793 55.5801 15.0752 52.0782C8.57112 48.5762 6.3062 40.5487 9.80379 34.0364L22.6617 10.1347C22.7218 10.0343 22.802 9.95406 22.8521 9.84368C23.9445 7.82678 23.1828 5.29813 21.1685 4.21442C19.1441 3.13071 16.6286 3.88329 15.5463 5.90019C15.4861 6.00053 15.4561 6.11091 15.416 6.22129L2.34761 30.5044H2.36766C-2.94387 40.8799 0.964611 53.6335 11.2569 59.1724C21.5493 64.7214 34.2769 60.9385 39.9893 50.7938H40.0093L53.0777 26.5107C53.1378 26.4204 53.208 26.3301 53.2681 26.2398C54.3505 24.2229 53.5988 21.7043 51.5845 20.6105L51.5744 20.6205Z" fill="#0067EE"/>
<path d="M59.8925 5.83998C59.8925 5.83998 59.7121 5.7597 59.3714 5.61922C59.2711 5.57908 59.1809 5.53895 59.0807 5.50884C55.2424 4.05387 38.7666 -1.06364 30.2582 14.7304H30.2482L17.5506 38.3211C17.4905 38.4114 17.4203 38.4917 17.3602 38.592C16.2778 40.6089 17.0295 43.1376 19.0438 44.2213C21.0682 45.305 23.5837 44.5524 24.666 42.5255C24.7162 42.4251 24.7462 42.3248 24.7963 42.2244L37.4939 18.6237C37.4939 18.6237 43.6172 6.49221 55.9539 13.145C57.9683 14.2287 60.4838 13.4761 61.5761 11.4592C62.6685 9.43227 61.9069 6.91365 59.8925 5.82994V5.83998Z" fill="#0067EE"/>
<path d="M64.1116 75.9398L77.0597 51.8775C85.3677 36.1637 72.119 25.2664 68.8018 22.8682C68.7216 22.798 68.6314 22.7478 68.5513 22.6876C68.2506 22.4769 68.0802 22.3665 68.0802 22.3665C66.0659 21.2828 63.5404 22.0354 62.458 24.0523C61.3757 26.0792 62.1273 28.5978 64.1417 29.6815C75.6467 35.8828 70.5656 46.5492 69.824 47.9641L56.8759 72.0264C56.8158 72.1167 56.7456 72.197 56.6855 72.2973C55.6032 74.3142 56.3548 76.8429 58.3692 77.9266C60.3936 79.0103 62.909 78.2577 63.9914 76.2408C64.0415 76.1405 64.0715 76.0401 64.1216 75.9298L64.1116 75.9398Z" fill="#0067EE"/>
<path d="M62.4881 43.3081C63.5805 41.2912 62.8188 38.7626 60.8045 37.6789C58.7801 36.5851 56.2646 37.3478 55.1823 39.3647C55.1322 39.465 55.1021 39.5754 55.052 39.6757L39.1976 69.1566C39.1374 69.2469 39.0673 69.3272 39.0172 69.4275C37.9248 71.4544 38.6865 73.973 40.7008 75.0568C42.7252 76.1505 45.2407 75.3879 46.323 73.371C46.3731 73.2706 46.4032 73.1603 46.4533 73.0599L62.3077 43.5791C62.3679 43.4888 62.438 43.4085 62.4881 43.3081Z" fill="#0067EE"/>
<path d="M237.839 0.778603L237.715 79.9493L247.456 79.9647L247.581 0.793923L237.839 0.778603Z" fill="#0067EE"/>
<path d="M221.795 79.9636L231.096 75.5585L211.874 51.0848V67.9324L221.795 79.9636Z" fill="#0067EE"/>
<path d="M180.255 79.9636L140.399 0.672302H138.104L98.3275 79.9636H108.58L137.683 22.0454C138.124 21.333 138.635 20.8915 139.196 20.8915C139.757 20.8915 140.419 21.4634 140.87 22.1759L169.903 79.9636H180.245H180.255Z" fill="#0067EE"/>
<path d="M203.055 0.903081L193.584 0.782669H185.116L184.996 79.9535L194.186 79.9736L194.286 12.583C194.286 12.583 194.386 10.0845 196.781 10.0845V10.0243L203.045 10.1046C203.045 10.1046 216.664 11.4592 216.664 24.8952C216.664 32.1399 211.884 35.2004 211.884 35.2004V46.7098C211.884 46.7098 226.436 40.328 226.436 24.6945C226.436 10.1046 219.28 0.913115 203.075 0.913115L203.055 0.903081Z" fill="#0067EE"/>
<path d="M295.566 17.831L301.609 10.9776C301.609 10.9776 291.707 0 279.29 0C266.873 0 255.709 10.245 255.709 22.1458C255.709 34.0465 266.512 41.1909 272.445 43.1576C279.42 45.4756 293.501 47.4824 293.501 58.6506C293.501 69.8188 275.562 78.5989 261.351 60.2461L253.975 65.1629C253.975 65.1629 265.801 80.9871 280.613 80.9871C295.425 80.9871 304.194 65.8252 304.194 57.8479C304.194 57.8479 305.457 41.0906 286.796 35.7724C268.126 30.4542 266.402 26.9923 266.402 21.2728C266.402 15.5532 271.784 10.4357 278.629 10.4357C285.474 10.4357 292.178 14.028 295.566 17.821V17.831Z" fill="#0067EE"/>
</svg>
