<svg width="222" height="100" viewBox="0 0 222 100" fill="none" xmlns="http://www.w3.org/2000/svg">
<circle opacity="0.8" cx="110.065" cy="47.7225" r="14.9266" fill="white"/>
<path d="M82.9756 65.9656C71.6423 50.7626 79.1979 31.5054 85.7398 25.0557C85.7398 39.7059 91.821 42.1936 100.114 47.9984C108.406 53.8032 116.975 53.5268 122.227 62.925C126.429 70.4436 121.121 76.746 118.081 78.9573C112 81.8136 96.0626 83.5213 82.9756 65.9656Z" fill="white"/>
<path d="M138.709 28.7941C150.043 43.9972 142.487 63.2543 135.945 69.7041C135.945 55.0539 129.864 52.5661 121.572 46.7613C113.279 40.9566 104.71 41.233 99.458 31.8347C95.2565 24.3161 100.564 18.0138 103.604 15.8024C109.686 12.9461 125.622 11.2385 138.709 28.7941Z" fill="white"/>
</svg>
