<svg width="222" height="100" viewBox="0 0 222 100" fill="none" xmlns="http://www.w3.org/2000/svg">
<g clip-path="url(#clip0_2303_14503)">
<path d="M7.21624 57.1692H6.56585V56.7047L10.5611 44.4402L0.123884 36.8523L0 36.2019L0.402623 36.016H13.2246C13.2246 36.016 17.0031 24.34 17.2199 23.7206L17.7773 23.3799L18.118 23.7206C18.3039 24.34 22.1133 35.9851 22.1133 35.9851H35.0282L35.5237 36.4187L35.3069 36.8523L29.0508 41.3121H21.6797L19.3878 34.3436L17.096 41.3121H9.72489L15.7023 45.648L13.3795 52.7404L7.1543 57.2621" fill="white"/>
<path d="M170.062 46.9799H164.704C163.403 46.918 162.164 47.4754 161.359 48.4975L153.678 57.3552V46.918H146.09V73.4911C146.09 74.2963 146.74 74.9777 147.546 74.9777H153.616V62.3105L160.244 72.7478C161.049 74.3273 162.721 75.2564 164.487 75.0706H170.681L160.12 58.5321L170.062 46.9799Z" fill="white"/>
<path d="M138.224 46.9795H121.437V72.4996C121.561 73.9552 122.8 75.0392 124.287 75.0082H138.193C139.029 75.0082 139.71 74.3269 139.71 73.4907V69.867H130.078C129.459 69.867 128.963 69.3715 128.963 68.7521V62.8676H137.542V57.7574H128.963V52.1516H139.741V48.559C139.741 47.7228 139.06 47.0414 138.224 47.0414" fill="white"/>
<path d="M191.215 46.9795H174.429V72.4996C174.552 73.9552 175.791 75.0392 177.247 75.0082H191.153C191.989 75.0082 192.639 74.3269 192.639 73.5216V69.898H183.008C182.388 69.898 181.862 69.4025 181.862 68.7831V62.8986H190.472V57.7884H181.862V52.1826H192.609V48.59C192.609 47.7538 191.958 47.1034 191.122 47.0724" fill="white"/>
<path d="M84.4269 46.9795H76.9009V73.4907C76.9009 74.3269 77.5823 74.9773 78.3875 74.9773H84.4269V46.9795Z" fill="white"/>
<path d="M68.5078 46.9795H51.6595V72.4996C51.7834 73.9552 53.0223 75.0702 54.5089 75.0082H68.4148C69.2511 75.0082 69.9015 74.3269 69.9015 73.4907V69.8671H60.3624C59.743 69.8671 59.2474 69.3715 59.2474 68.7521V62.8676H67.8574V57.7574H59.2784V52.1516H70.0253V48.559C70.0253 47.7228 69.3749 47.0724 68.5387 47.0414" fill="white"/>
<path d="M44.1027 46.9795H36.5767V57.7264H30.0109V46.9795H21.308V48.0944C22.0513 48.4042 22.5469 49.1784 22.4849 49.9837V75.0082H30.0419V62.8366H36.6387V75.0082H44.1646L44.1027 46.9795Z" fill="white"/>
<path d="M113.818 46.9797V73.4908C113.818 74.2961 113.168 74.9774 112.363 74.9774H107.717L97.5276 58.9345C97.6824 59.9255 97.7444 60.9166 97.7444 61.9387V75.0084H92.1076V46.9797H95.7622C97.4656 46.9177 99.0761 47.7849 99.9433 49.2406L108.46 62.62C108.213 61.6599 108.12 60.6688 108.182 59.6778V46.9797H113.787H113.818Z" fill="white"/>
<path d="M222 46.9792V48.0942C221.257 48.4349 220.792 49.1782 220.823 49.9834V73.4904C220.823 74.3266 220.142 74.977 219.337 75.008H214.722L204.532 58.965C204.656 59.9561 204.718 60.9471 204.718 61.9692V75.0389H199.082V46.9792H202.736C204.47 46.8863 206.081 47.7845 206.979 49.2401L215.496 62.6506C215.248 61.6905 215.155 60.6684 215.186 59.6773V46.9792H222.031H222Z" fill="white"/>
<path d="M76.1886 82.7819H76.5913L76.8081 83.0607L79.8432 91.5467L82.7235 83.1226L82.9093 82.7819H84.5198C84.8296 82.7819 84.9534 82.9368 84.8295 83.2465L80.8033 94.2412L80.6175 94.5199L80.2768 94.6129H79.1619L78.5424 94.1793L74.3614 83.2775V82.9058L74.6711 82.751H76.1886V82.7819Z" fill="white"/>
<path d="M94.4924 83.8659V84.1447H94.2137H93.2536V93.1263H94.1827L94.4615 93.2192V93.4979V94.2102L94.1518 94.5819H90.0326L89.6919 94.2412V93.4669L89.9707 93.1263H90.9618V84.2066H89.9397L89.599 83.9898V83.2155V82.9678H89.8158H94.0279H94.3066V83.1846L94.4924 83.8659Z" fill="white"/>
<path d="M106.819 89.0693V89.3481L106.478 89.441H102.421V92.1664L102.545 92.6929L103.071 92.8478H107.005L107.438 93.1575V94.2415L107.16 94.6441H102.142C101.616 94.7061 101.089 94.5512 100.687 94.2105C100.346 93.8079 100.191 93.2814 100.222 92.7549V83.2158L100.625 82.7822H107.098L107.407 82.8751V83.1539L107.314 84.1759L107.129 84.4856H102.452V87.6447H106.416L106.819 87.9234V88.0473V89.0693Z" fill="white"/>
<path d="M115.398 84.5785H112.208L111.805 84.2379V84.145V83.1539L112.177 82.7822H120.88H121.313V83.1229L121.189 84.114L121.035 84.4237H120.663H117.566V94.0557L117.256 94.4893H117.132H115.769L115.336 94.1795V84.5785H115.398Z" fill="white"/>
<path d="M135.622 82.7822L136.055 83.0919V83.1229V83.2158V94.1795L135.963 94.5512H135.653H134.569L133.856 94.1795L128.282 86.5607V94.0866L127.972 94.5512H126.609H126.269L126.145 94.2105V83.2468L126.269 82.8751H126.609H127.724H128.065L128.313 83.1229L133.918 90.8657V83.2158L134.29 82.7822H135.622Z" fill="white"/>
<path d="M147.731 90.0912L146.524 86.4676L146.338 85.8482L146.183 85.3527L145.842 86.4986L144.634 90.0912H147.762H147.731ZM145.068 83.1228L145.254 82.875H146.926L147.391 83.1847L151.603 94.2723V94.582L151.355 94.7369H149.807L149.435 94.644L149.218 94.3343L148.32 91.8256H143.984L143.086 94.3962L142.931 94.644L142.621 94.7369H141.166L140.887 94.613V94.3033L145.068 83.1228Z" fill="white"/>
<path d="M156.837 83.1848L157.178 82.7822H158.633L158.85 83.061L162.783 91.547L166.469 83.1848L166.655 82.8751H168.017L168.42 83.1539L168.916 94.1795V94.5202L168.606 94.6441H167.212L166.872 94.5202L166.779 94.0866L166.531 87.1182L163.62 94.3344L163.434 94.5822H162.226L162.009 94.3344L158.757 87.1491L158.602 94.2415L158.509 94.6131H156.992C156.682 94.6131 156.527 94.4583 156.527 94.1486L156.806 83.2158L156.837 83.1848Z" fill="white"/>
<path d="M220.792 87.8301H174.429V89.5954H220.792V87.8301Z" fill="white"/>
<path d="M69.9944 87.8301H22.485V89.5954H69.9944V87.8301Z" fill="white"/>
</g>
<defs>
<clipPath id="clip0_2303_14503">
<rect width="222" height="100" fill="white"/>
</clipPath>
</defs>
</svg>
