<svg width="222" height="100" viewBox="0 0 222 100" fill="none" xmlns="http://www.w3.org/2000/svg">
<g clip-path="url(#clip0_2308_9661)">
<path d="M109.843 14C125.454 14 138.767 22.6749 143.641 34.6827C143.793 35.0562 143.601 35.3055 143.231 35.3086C142.485 35.3137 127.112 35.4971 127.112 35.4971H92.5762C92.5762 35.4971 77.2018 35.3137 76.4563 35.3086C76.0854 35.3055 75.8938 35.0567 76.0455 34.6827C80.92 22.6744 94.2358 14 109.843 14ZM109.846 39.1187C116.98 39.1187 140.1 39.6261 144.544 39.7063C144.852 39.7109 145.109 39.4795 145.05 39.1453C144.979 38.7447 144.544 37.1511 144.428 36.8348C144.328 36.5538 144.176 36.426 143.893 36.4342C139.463 36.6784 109.846 38.336 109.846 38.336C109.846 38.336 80.2281 36.6784 75.7998 36.4342C75.5152 36.426 75.3634 36.5538 75.2648 36.8348C75.1498 37.1511 74.714 38.7447 74.6435 39.1453C74.5847 39.4789 74.8417 39.7104 75.1498 39.7063C79.593 39.6261 102.712 39.1187 109.846 39.1187ZM109.843 43.4178C120.308 43.3729 140.934 44.2226 145.201 44.3309C145.527 44.3406 145.671 44.171 145.668 43.9094C145.664 43.4112 145.516 41.8605 145.465 41.535C145.405 41.1646 145.147 40.9699 144.797 40.9791C144.476 40.9893 120.542 42.3556 109.843 42.4435C99.1434 42.3556 75.2111 40.9888 74.8887 40.9791C74.5372 40.9694 74.2802 41.1646 74.2209 41.535C74.1693 41.861 74.0211 43.4117 74.0181 43.9094C74.0165 44.1715 74.1586 44.3406 74.483 44.3309C78.7515 44.2226 99.378 43.3729 109.843 43.4178ZM109.843 76.093C125.454 76.093 138.767 67.4181 143.641 55.4124C143.793 55.0389 143.601 54.789 143.231 54.7875C142.485 54.7829 127.112 54.5974 127.112 54.5974H92.5762C92.5762 54.5974 77.2018 54.7829 76.4563 54.7875C76.0854 54.789 75.8938 55.0383 76.0455 55.4124C80.92 67.4186 94.2358 76.093 109.843 76.093ZM109.846 50.9763C102.712 50.9763 79.593 50.4669 75.1509 50.3887C74.8422 50.3821 74.5857 50.6135 74.6445 50.9492C74.715 51.3483 75.1509 52.9455 75.2658 53.2587C75.3644 53.5397 75.5162 53.6695 75.8008 53.6613C80.2292 53.4156 109.847 51.7591 109.847 51.7591C109.847 51.7591 139.464 53.4151 143.894 53.6613C144.177 53.6695 144.329 53.5397 144.429 53.2587C144.545 52.946 144.98 51.3488 145.051 50.9492C145.11 50.614 144.852 50.3826 144.545 50.3887C140.1 50.4669 116.98 50.9763 109.846 50.9763ZM109.843 46.6772C99.3785 46.7201 78.7515 45.8724 74.483 45.7621C74.1586 45.7539 74.0165 45.9246 74.0181 46.1836C74.0217 46.6838 74.1698 48.2325 74.2209 48.558C74.2797 48.9315 74.5372 49.1262 74.8887 49.1139C75.2111 49.1057 99.1434 47.7389 109.843 47.6495C120.542 47.7389 144.476 49.1062 144.797 49.1139C145.147 49.1262 145.404 48.932 145.465 48.558C145.517 48.232 145.665 46.6833 145.668 46.1836C145.671 45.9246 145.527 45.7539 145.201 45.7621C140.934 45.8724 120.308 46.7201 109.843 46.6772Z" fill="white"/>
<path d="M54.9119 98.1658C53.4189 98.1658 51.0727 97.0637 51.0727 93.4942C51.0727 89.9186 53.4108 88.7756 54.9119 88.7756C56.4146 88.7756 58.7512 89.9155 58.7512 93.4942C58.7512 97.0703 56.4054 98.1658 54.9119 98.1658ZM54.9027 86.9842C51.4452 86.9842 48.6441 89.8966 48.6441 93.4947C48.6441 97.0861 51.4452 100.001 54.9027 100.001C58.3603 100.001 61.1644 97.0861 61.1644 93.4947C61.1639 89.8966 58.3598 86.9842 54.9027 86.9842ZM151.165 98.1658C149.67 98.1658 147.323 97.0637 147.323 93.4942C147.323 89.9186 149.66 88.7756 151.165 88.7756C152.666 88.7756 155.003 89.9155 155.003 93.4942C155.003 97.0703 152.658 98.1658 151.165 98.1658ZM151.152 86.9842C147.698 86.9842 144.897 89.8966 144.897 93.4947C144.897 97.0861 147.698 100.001 151.152 100.001C154.61 100.001 157.412 97.0861 157.412 93.4947C157.412 89.8966 154.609 86.9842 151.152 86.9842ZM39.0143 99.7022V87.2821H36.7549V99.7022H39.0143ZM79.3874 99.7022V87.2821H77.1259V99.7022H79.3874ZM128.958 99.7022V87.2821H126.696V99.7022H128.958ZM89.7121 88.9462H90.6993L90.8112 87.3383C90.3563 87.2847 89.8988 87.2575 89.4408 87.257C84.6374 87.257 81.5436 89.8245 81.5436 93.4947C81.5436 97.1597 84.6374 99.7262 89.4408 99.7262C89.9451 99.7262 90.3176 99.6986 90.8112 99.648L90.6993 98.0385H89.7121C86.2949 98.0385 84.0523 96.2671 84.0523 93.4804C84.0518 90.6891 86.3118 88.9462 89.7121 88.9462ZM72.0078 94.6954L71.9889 94.7113C70.339 91.6675 66.8109 88.4767 64.6598 87.2836H63.1203V99.7022H65.2474L65.1595 90.1076L65.1851 90.0754C67.8681 91.923 70.7702 95.4925 72.3016 99.7022H74.0521V87.2836H71.9214L72.0078 94.6954ZM140.844 94.6954L140.823 94.7113C139.175 91.6675 135.647 88.4767 133.498 87.2836H131.956V99.7022H134.082L133.995 90.1076L134.019 90.0754C136.704 91.923 139.606 95.4925 141.136 99.7022H142.89V87.2836H140.754L140.844 94.6954ZM91.5081 99.7022H93.6479C93.6479 99.7022 96.9936 91.7728 97.1168 91.5127C97.2701 91.7825 101.245 99.7022 101.245 99.7022H103.803L97.1515 87.0281L91.5081 99.7022ZM178.28 87.0286L172.634 99.7027H174.774C174.774 99.7027 178.12 91.7733 178.245 91.5132C178.398 91.783 182.375 99.7027 182.375 99.7027H184.93L178.28 87.0286ZM43.0355 92.3318C44.3481 90.9747 47.892 87.2836 47.892 87.2836H45.1753L40.0127 92.7201C42.4928 94.3536 44.5637 96.5721 45.8462 99.7022H48.2165C47.2375 96.7617 45.3593 94.0761 43.0355 92.3318ZM161.636 87.2841H159.375V99.7027H166.562V97.9829H161.636L161.636 87.2841ZM174.057 87.2841H165.49V89.004H168.642V99.7022H170.903V89.004H174.057V87.2841ZM117.525 93.3828C117.3 93.8156 116.981 94.6367 116.768 95.2196H116.736C116.527 94.651 116.209 93.8253 115.981 93.3945C114.909 91.1458 113.195 88.0541 112.174 86.9775C111.577 88.0745 109.209 97.6247 108.714 99.7022H110.979L112.768 91.5321L112.802 91.5194C113.577 92.7124 115.094 95.7929 116.003 98.5985H117.501C118.342 95.9779 119.905 92.6945 120.679 91.5015L120.71 91.5173L122.526 99.7022H124.792C124.292 97.6247 121.928 88.0745 121.328 86.9775C120.286 88.0536 118.614 91.1453 117.525 93.3828Z" fill="white"/>
</g>
<defs>
<clipPath id="clip0_2308_9661">
<rect width="222" height="100" fill="white"/>
</clipPath>
</defs>
</svg>
