<svg width="222" height="100" viewBox="0 0 222 100" fill="none" xmlns="http://www.w3.org/2000/svg">
<g clip-path="url(#clip0_2308_9610)">
<path d="M47.3567 66.5962C47.0228 66.6648 46.7117 66.817 46.4527 67.0386C46.1937 67.2602 45.9952 67.5439 45.8759 67.8632C45.7565 68.1825 45.7202 68.5269 45.7704 68.8641C45.8205 69.2012 45.9554 69.5202 46.1625 69.7909C46.7642 70.3988 52.9983 76.7542 52.9983 76.7542L27.8605 76.6668L34.9009 69.7909C35.2316 69.3945 35.3979 68.8867 35.3658 68.3715C35.3329 67.9332 35.1521 67.519 34.8532 67.1967C34.5542 66.8744 34.1548 66.6631 33.7202 66.5973H29.0948L35.1097 60.2624C35.2611 60.0631 35.3717 59.8358 35.435 59.5936C35.4984 59.3515 35.5133 59.0992 35.479 58.8512C35.413 58.415 35.2043 58.0129 34.8855 57.7079C34.5667 57.4029 34.1558 57.2121 33.7171 57.1655C33.3623 57.1305 33.0045 57.1893 32.6796 57.3361C32.3547 57.4828 32.074 57.7124 31.8657 58.0017C31.1941 58.7216 23.4686 66.5973 23.4686 66.5973L22.8515 67.2144C22.5728 67.5855 22.4229 68.0375 22.4246 68.5016C22.4263 68.9657 22.5794 69.4166 22.8607 69.7858C23.0148 69.982 23.2087 70.1434 23.4295 70.2595C23.6504 70.3756 23.8933 70.4438 24.1423 70.4595H28.5085L21.4732 77.3631C21.1483 77.74 20.9795 78.2267 21.0011 78.7239C21.0115 79.204 21.2004 79.6629 21.5309 80.0113C21.8614 80.3597 22.3099 80.5725 22.7887 80.6082C24.7224 80.889 57.8284 80.6082 57.8284 80.6082C58.1697 80.6195 58.5077 80.5383 58.8067 80.3731C59.1056 80.208 59.3543 79.9651 59.5265 79.6701C59.7418 79.15 59.7646 78.5702 59.5908 78.0348C59.417 77.4994 59.0579 77.0435 58.5782 76.749L52.4676 70.5777H56.6599C56.9088 70.5436 57.1471 70.4553 57.3582 70.3192C57.5693 70.1831 57.748 70.0024 57.8818 69.7899C58.1502 69.4048 58.2781 68.9392 58.244 68.471C58.2099 68.0029 58.016 67.5607 57.6946 67.2185L56.6599 66.1714L42.792 51.9559H44.1384C44.6109 51.8665 45.0361 51.6117 45.3377 51.2372C45.6393 50.8626 45.7975 50.3928 45.784 49.9121C45.7949 49.4501 45.6317 49.0009 45.3269 48.6536C45.0221 48.3063 44.5979 48.0862 44.1384 48.0371L37.9177 47.999C37.4356 48.0399 36.9859 48.2582 36.6555 48.6116C36.3251 48.965 36.1375 49.4284 36.129 49.9121V56.0834C36.1293 56.5703 36.314 57.039 36.6458 57.3952C36.9777 57.7515 37.4321 57.9689 37.9177 58.0037C38.1865 58.0292 38.4577 57.9987 38.7142 57.9141C38.9706 57.8295 39.2068 57.6926 39.4077 57.5122C39.6086 57.3318 39.77 57.1116 39.8815 56.8657C39.9931 56.6198 40.0525 56.3535 40.056 56.0834V54.8615L51.5614 66.5932H47.3567" fill="white"/>
<path fill-rule="evenodd" clip-rule="evenodd" d="M145.284 76.8828H135.591C135.591 72.9671 135.612 69.1039 135.576 65.2427C135.605 64.2752 135.481 63.3092 135.21 62.3802C135.077 62.0858 134.887 61.821 134.65 61.6017C134.414 61.3824 134.135 61.213 133.831 61.1038C133.634 61.0151 133.418 60.9786 133.203 60.9977C132.988 61.0167 132.781 61.0909 132.603 61.2129C132.425 61.3349 132.281 61.5006 132.185 61.6943C132.09 61.8879 132.046 62.1029 132.057 62.3185C131.997 62.8599 131.967 63.4041 131.968 63.9488C131.961 68.2059 131.968 72.4652 131.968 76.8355H122.051V58.698C125.167 58.698 128.215 58.661 131.261 58.7371C131.718 58.7495 132.162 59.2936 132.709 59.6556C134.141 58.8606 135.721 58.3702 137.351 58.2153C138.982 58.0605 140.626 58.2444 142.182 58.7556C145.088 59.5785 145.344 60.3612 145.306 63.0992C145.246 67.632 145.29 72.1679 145.29 76.8818" fill="white"/>
<path fill-rule="evenodd" clip-rule="evenodd" d="M163.819 75.9792C162.157 76.8802 160.31 77.3873 158.421 77.4613C156.531 77.5353 154.65 77.1743 152.923 76.4061C152.363 76.188 151.642 75.539 151.586 75.0206C151.284 73.3562 151.28 71.6513 151.576 69.9859C151.782 69.1774 153.233 68.4605 154.251 68.153C156.912 67.3497 159.648 66.8076 162.348 66.137C164.053 65.7153 164.931 62.7819 163.644 61.6114C163.406 61.4428 163.129 61.3357 162.839 61.2998C162.549 61.2639 162.255 61.3003 161.982 61.4057C161.307 61.7991 160.779 62.4022 160.478 63.1234C160.329 63.938 160.309 64.7712 160.421 65.5919H151.498C150.763 62.8693 151.395 61.0807 153.91 60.1159C155.851 59.3254 157.909 58.858 160.001 58.7325C163.896 58.5977 167.861 58.1894 171.624 59.903C172.842 60.4584 173.812 61.2093 173.864 62.5207C174.05 67.2139 174.094 71.9154 174.187 76.6118C174.187 76.7074 174.112 76.8021 173.998 77.0684C171.09 77.0684 168.109 77.1055 165.132 77.0242C164.725 77.015 164.337 76.4143 163.822 75.9885M164.014 68.2815C161.237 69.3358 160.092 70.6873 160.479 72.5418C160.581 72.9348 160.765 73.3016 161.02 73.6175C161.275 73.9335 161.594 74.1913 161.956 74.3737C162.483 74.5794 163.88 74.0281 163.92 73.6958C164.055 71.8916 164.085 70.0811 164.01 68.2733L164.014 68.2815Z" fill="white"/>
<path fill-rule="evenodd" clip-rule="evenodd" d="M106.684 70.5161C107.19 66.583 107.695 62.6498 108.209 58.6425H117.098C116.839 59.9087 116.623 61.0679 116.363 62.2157C115.315 66.8442 114.22 71.4645 113.214 76.1012C113.102 76.888 112.729 77.6144 112.154 78.1631C111.579 78.7117 110.836 79.0506 110.045 79.1251C105.578 79.5869 101.09 79.8194 96.4627 80.1536V77.5185C97.6343 77.2912 98.8367 77.0556 100.255 76.7779C98.0735 70.5686 95.9927 64.641 93.8523 58.552C96.7651 58.552 99.4785 58.5242 102.184 58.587C102.399 58.62 102.603 58.7056 102.777 58.8362C102.952 58.9668 103.091 59.1384 103.183 59.3358C104.1 62.7547 104.932 66.1983 105.806 69.6305C105.905 69.9215 106.028 70.204 106.173 70.475C106.342 70.4863 106.511 70.5007 106.679 70.512" fill="white"/>
<path fill-rule="evenodd" clip-rule="evenodd" d="M89.2267 54.8135C90.32 58.1707 88.6312 60.7112 87.0287 63.2929C85.1948 66.2499 83.4061 69.2327 81.3572 72.5992H89.3727V76.6465H69.8159C69.6219 75.7207 69.6206 74.7648 69.8121 73.8385C70.0035 72.9121 70.3837 72.0351 70.9288 71.2621C73.3068 67.3196 75.5439 63.298 78.0484 58.9421H70.7714V54.8135H89.2277" fill="white"/>
<path fill-rule="evenodd" clip-rule="evenodd" d="M180.05 70.9035H188.467C188.664 71.752 188.944 72.5788 189.304 73.372C189.391 73.5825 189.521 73.7725 189.686 73.93C189.851 74.0875 190.046 74.2092 190.26 74.2872C190.474 74.3652 190.702 74.3979 190.93 74.3833C191.157 74.3686 191.379 74.3069 191.581 74.2021C192.133 73.8133 192.523 73.236 192.679 72.579C192.737 72.3456 192.747 72.1028 192.709 71.8652C192.671 71.6276 192.585 71.4002 192.457 71.1966C192.329 70.9931 192.161 70.8176 191.963 70.6808C191.765 70.544 191.541 70.4486 191.305 70.4006C188.948 69.6045 186.541 68.9524 184.208 68.1028C182.911 67.6317 181.302 67.1905 180.555 66.1917C178.924 64.0133 179.445 60.1799 182.846 59.4095C187.63 58.3146 192.598 58.2984 197.389 59.3622C198.153 59.5327 198.892 59.7985 199.589 60.1531C201.171 60.9544 201.407 61.696 201.009 64.2365H192.527C192.462 63.8908 192.421 63.5409 192.405 63.1894C192.434 62.204 192.09 61.5314 191.021 61.4491C190.1 61.3802 189.098 61.337 188.809 62.4643C188.711 62.685 188.661 62.9239 188.662 63.1654C188.662 63.4069 188.714 63.6456 188.813 63.8658C188.912 64.086 189.056 64.2829 189.237 64.4435C189.417 64.6041 189.629 64.725 189.859 64.798C192.128 65.5489 194.406 66.275 196.684 67.0002C197.799 67.2415 198.889 67.5879 199.939 68.0349C200.482 68.24 200.952 68.6013 201.29 69.0731C201.628 69.545 201.819 70.1064 201.839 70.6865C201.85 74.9776 200.469 76.3631 196.106 76.793C191.986 77.3231 187.805 77.117 183.758 76.1841C181.454 75.5927 179.952 74.6289 180.045 70.9046" fill="white"/>
</g>
<defs>
<clipPath id="clip0_2308_9610">
<rect width="180.845" height="33" fill="white" transform="translate(21 48)"/>
</clipPath>
</defs>
</svg>
