<svg width="222" height="100" viewBox="0 0 222 100" fill="none" xmlns="http://www.w3.org/2000/svg">
<mask id="mask0_2308_9961" style="mask-type:luminance" maskUnits="userSpaceOnUse" x="23" y="14" width="175" height="67">
<path d="M197.884 14H23.9189V80.595H197.884V14Z" fill="white"/>
</mask>
<g mask="url(#mask0_2308_9961)">
<path d="M93.3816 47.5329C87.3811 52.931 81.4086 58.3937 75.7714 64.1697C74.8387 65.136 73.9178 66.1118 73.0283 67.1116C72.1456 68.1113 71.2724 69.1326 70.5407 70.2039C70.256 70.6419 69.964 71.0793 69.8399 71.5695C69.8349 71.5959 69.8399 71.6105 69.8349 71.6296L69.8304 71.6583C69.8304 71.656 69.8304 71.6414 69.8253 71.6341C69.8208 71.615 69.8135 71.601 69.8017 71.5746C69.7754 71.5241 69.7153 71.4572 69.6535 71.4308C69.5361 71.3809 69.5339 71.4073 69.5625 71.3977C69.9522 71.3067 70.3447 71.0462 70.7198 70.8306C71.8322 70.1393 72.9227 69.3406 74.0132 68.5562C76.1925 66.9728 78.3713 65.3728 80.6051 63.8421C86.0536 60.1827 94.1184 54.9305 100.868 55.361L100.999 55.3705C101.043 55.373 101.121 55.3873 101.179 55.3969C101.495 55.4375 101.887 55.7557 101.898 56.124C101.93 56.851 101.509 57.3055 101.174 57.8221C99.4782 60.0081 97.51 61.833 95.6014 63.7919C94.649 64.7461 93.6972 65.698 92.7668 66.6643C91.8436 67.6306 90.9064 68.5968 90.1073 69.6133C89.8035 70.0248 89.4116 70.5032 89.2987 70.967C89.3083 70.9193 89.2678 70.8525 89.2415 70.8306C89.2319 70.8306 89.3038 70.862 89.4088 70.8687C90.2775 70.8906 91.2102 70.5391 92.0755 70.2544C93.9746 69.5822 95.8069 68.769 97.706 68.0419C99.0503 67.5517 100.291 67.0351 101.774 66.8915C102.927 66.7911 103.728 67.3555 103.803 68.5921C103.829 69.4291 103.63 70.1129 103.441 70.7901C102.853 72.7707 102.023 74.5591 101.537 76.5206C101.018 78.7066 101.275 79.8067 103.803 79.3737C106.34 78.8863 108.823 77.6566 111.1 76.4201C111.329 76.2836 111.63 76.365 111.759 76.5998C111.886 76.8266 111.808 77.1136 111.583 77.2455C110.394 77.939 109.189 78.5634 107.938 79.1278C105.79 80.0487 100.741 82.2415 100.172 78.4506C100.057 76.9389 100.526 75.6238 100.956 74.2509C101.516 72.409 102.463 70.5363 102.53 68.6662C102.513 68.5107 102.494 68.3457 102.394 68.2261C102.391 68.2261 102.327 68.1878 102.224 68.1759C100.872 68.1352 99.4664 68.7929 98.1721 69.2498C96.9288 69.7328 95.6873 70.2589 94.4295 70.7637C93.061 71.2422 88.1964 73.6051 87.9741 70.9552C88.0027 69.0584 93.2929 64.4878 94.795 62.9643C96.2516 61.5699 97.7273 60.1995 99.1003 58.7286C99.5523 58.2407 99.9948 57.7456 100.382 57.2337C100.61 56.9276 100.882 56.5473 100.942 56.2412C100.942 56.2412 100.963 56.3105 100.997 56.3273C101.021 56.3512 101.018 56.3368 100.98 56.3296C94.3407 55.8155 86.5511 61.0725 81.1936 64.6887C78.9834 66.2194 76.826 67.8243 74.6495 69.4244C73.5567 70.2207 72.4758 71.0243 71.2988 71.7661C70.8035 72.0575 70.347 72.3686 69.7276 72.4927C69.5912 72.5073 69.412 72.541 69.1414 72.4163C69.0077 72.3473 68.8808 72.2226 68.8163 72.0957C68.7349 71.9548 68.7158 71.7992 68.7134 71.6465C68.7564 70.8716 69.2228 70.1972 69.6221 69.5774C71.2129 67.3173 73.0996 65.3848 74.9942 63.4092C76.8838 61.4695 78.8211 59.5848 80.7775 57.7216C84.6902 53.9954 88.6889 50.3695 92.7527 46.8082C93.2283 46.4112 93.8505 47.0928 93.3839 47.5257L93.3816 47.5329Z" fill="white"/>
<path d="M53.2586 57.2262C53.0601 57.121 52.8233 57.1187 52.62 57.2191C52.211 57.4224 51.3476 57.7309 49.8838 57.7309C48.4201 57.7309 47.5567 57.4224 47.1477 57.2191C46.9444 57.1187 46.71 57.121 46.5091 57.2262L38.7217 61.3496L40.635 65.4155L43.5051 64.9683L43.2659 76.5349H56.4994L56.2602 64.9683L59.1303 65.4155L61.0437 61.3496L53.2562 57.2262H53.2586ZM49.8838 59.5917C48.3484 59.5917 47.1023 58.7857 47.1023 58.3815C47.1023 58.3815 48.3484 58.6063 49.8838 58.6063C51.4193 58.6063 52.6654 58.3815 52.6654 58.3815C52.6654 58.7857 51.4193 59.5917 49.8838 59.5917Z" fill="white"/>
<path d="M119.669 65.6709C120.135 65.6709 120.512 65.2939 120.512 64.8286C120.512 64.3635 120.135 63.9863 119.669 63.9863C119.204 63.9863 118.827 64.3635 118.827 64.8286C118.827 65.2939 119.204 65.6709 119.669 65.6709Z" fill="white" fill-opacity="0.5"/>
<path d="M128.577 73.7149C129.043 73.7149 129.419 73.3381 129.419 72.8726C129.419 72.4076 129.043 72.0303 128.577 72.0303C128.112 72.0303 127.735 72.4076 127.735 72.8726C127.735 73.3381 128.112 73.7149 128.577 73.7149Z" fill="white" fill-opacity="0.5"/>
<path d="M144.524 74.7412C144.99 74.7412 145.367 74.3639 145.367 73.8989C145.367 73.4334 144.99 73.0566 144.524 73.0566C144.059 73.0566 143.682 73.4334 143.682 73.8989C143.682 74.3639 144.059 74.7412 144.524 74.7412Z" fill="white" fill-opacity="0.5"/>
<path d="M139.596 65.6709C140.061 65.6709 140.438 65.2939 140.438 64.8286C140.438 64.3635 140.061 63.9863 139.596 63.9863C139.13 63.9863 138.753 64.3635 138.753 64.8286C138.753 65.2939 139.13 65.6709 139.596 65.6709Z" fill="white" fill-opacity="0.5"/>
<path d="M134.621 56.5635C135.086 56.5635 135.463 56.1864 135.463 55.7212C135.463 55.256 135.086 54.8789 134.621 54.8789C134.156 54.8789 133.778 55.256 133.778 55.7212C133.778 56.1864 134.156 56.5635 134.621 56.5635Z" fill="white" fill-opacity="0.5"/>
<path d="M151.021 59.8213C151.487 59.8213 151.863 59.4442 151.863 58.979C151.863 58.5138 151.487 58.1367 151.021 58.1367C150.556 58.1367 150.179 58.5138 150.179 58.979C150.179 59.4442 150.556 59.8213 151.021 59.8213Z" fill="white" fill-opacity="0.5"/>
<path d="M160.562 68.5996C161.026 68.5996 161.404 68.2225 161.404 67.7573C161.404 67.2922 161.026 66.915 160.562 66.915C160.096 66.915 159.719 67.2922 159.719 67.7573C159.719 68.2225 160.096 68.5996 160.562 68.5996Z" fill="white" fill-opacity="0.5"/>
<path d="M28.0925 14.821H41.3594C42.8615 14.821 44.2678 15.5098 45.191 16.6698H45.533L44.098 14.3379H25.354L23.9189 16.6698H24.261C25.1842 15.5098 26.5905 14.821 28.0925 14.821Z" fill="white"/>
<path d="M33.5032 18.7024V29.3695H33.508V36.7264C33.508 37.7836 32.7953 38.6709 31.8242 38.9412V39.0273C34.2064 39.0273 36.1389 37.0948 36.1389 34.7126V24.0455H36.1341V16.6885C36.1341 15.6314 36.8469 14.7441 37.8179 14.4738V14.3877C35.4357 14.3877 33.5032 16.3202 33.5032 18.7024Z" fill="white"/>
<path d="M31.8242 39.0264H37.7461" stroke="white" stroke-width="0.119586" stroke-miterlimit="10"/>
<path d="M56.6716 24.8698C51.2592 23.1549 49.5275 21.7917 49.5275 19.1655C49.5275 16.5394 51.9576 14.6858 55.4566 14.6858C57.193 14.6858 59.0945 15.0183 60.4506 16.1974C60.8835 16.5753 61.2135 17.0178 61.5436 17.4842C61.5866 17.5464 61.6369 17.6109 61.7086 17.6325C61.7828 17.654 61.8641 17.6253 61.9311 17.587C62.2779 17.3909 62.4644 16.9484 62.3592 16.5634C62.2659 16.2142 61.9765 15.9559 61.6919 15.731C60.9696 15.157 60.1612 14.6835 59.2786 14.406C58.3052 14.0999 57.2696 14.0233 56.2555 14.0186C56.234 14.0186 56.2124 14.0186 56.1933 14.0186C51.0368 14.0186 47.54 16.6423 47.54 20.5265C47.54 23.8844 49.5658 25.7404 55.1625 27.4553C60.5391 29.1343 62.4907 30.8132 62.4907 33.7886C62.4907 36.7639 60.0225 38.7921 55.9733 38.7921C54.5215 38.7921 52.9286 38.5338 51.6419 37.8282C50.4794 37.192 49.5586 36.1659 48.9009 35.0275C48.8148 34.8792 48.6952 34.707 48.523 34.7238C48.4226 34.7333 48.3412 34.8098 48.2719 34.884C48.0208 35.1519 47.7864 35.4915 47.8342 35.855C47.8749 36.1636 48.1069 36.4052 48.3341 36.6156C50.7689 38.8519 54.1843 39.8636 57.4585 39.3685C59.7617 39.0193 62.0698 37.9239 63.3924 35.9412C64.0501 34.9534 64.4256 33.7934 64.471 32.6071C64.4759 32.5114 64.4759 32.4157 64.4759 32.3201C64.4759 28.6799 62.3759 26.721 56.6693 24.8674L56.6716 24.8698Z" fill="white"/>
<path d="M67.5132 14.6338H73.4971" stroke="white" stroke-width="0.119586" stroke-miterlimit="10"/>
<path d="M87.2403 30.3498V15.557H87.1207V30.3379C87.1207 33.2869 85.4872 36.0422 82.8256 37.3122C81.8159 37.7929 80.6873 38.0632 79.4962 38.0632C75.1696 38.0632 71.6606 34.5545 71.6606 30.2279V16.717C71.6606 15.5666 72.5933 14.6338 73.7439 14.6338H73.3183C71.0822 14.6338 69.269 16.4467 69.269 18.683V30.3713C69.269 35.4131 73.3564 39.5006 78.3984 39.5006C83.2821 39.5006 87.2431 35.5423 87.2431 30.656V30.3187C87.2431 30.3187 87.2431 30.3403 87.2431 30.3498H87.2403Z" fill="white"/>
<path d="M90.1722 14.5742H84.188V14.6938H90.1722V14.5742Z" fill="white"/>
<path d="M87.2407 17.6141H87.1211C87.1211 15.9375 88.4839 14.5742 90.1607 14.5742V14.6938C88.5513 14.6938 87.2407 16.0045 87.2407 17.6141Z" fill="white"/>
<path d="M175.222 14.6338H181.206" stroke="white" stroke-width="0.119586" stroke-miterlimit="10"/>
<path d="M194.952 30.3498V15.557H194.832V30.3379C194.832 33.2869 193.199 36.0422 190.537 37.3122C189.527 37.7929 188.399 38.0632 187.208 38.0632C182.881 38.0632 179.372 34.5545 179.372 30.2279V16.717C179.372 15.5666 180.305 14.6338 181.455 14.6338H181.03C178.794 14.6338 176.98 16.4467 176.98 18.683V30.3713C176.98 35.4131 181.068 39.5006 186.11 39.5006C190.994 39.5006 194.954 35.5423 194.954 30.656V30.3187C194.954 30.3187 194.954 30.3403 194.954 30.3498H194.952Z" fill="white"/>
<path d="M197.884 14.5742H191.899V14.6938H197.884V14.5742Z" fill="white"/>
<path d="M194.951 17.6141H194.832C194.832 15.9375 196.195 14.5742 197.872 14.5742V14.6938C196.262 14.6938 194.951 16.0045 194.951 17.6141Z" fill="white"/>
<path d="M95.8052 30.6532V15.5566" stroke="white" stroke-width="0.119586" stroke-miterlimit="10"/>
<path d="M92.335 14.6338H98.3187" stroke="white" stroke-width="0.119586" stroke-miterlimit="10"/>
<path d="M95.8052 22.7656V37.8646" stroke="white" stroke-width="0.119586" stroke-miterlimit="10"/>
<path d="M99.2753 38.7852H93.291" stroke="white" stroke-width="0.119586" stroke-miterlimit="10"/>
<path d="M95.8049 36.2871C95.8049 37.6695 94.6857 38.7889 93.3032 38.7889" stroke="white" stroke-width="0.119586" stroke-miterlimit="10"/>
<path d="M113.454 37.8284V15.5566" stroke="white" stroke-width="0.119586" stroke-miterlimit="10"/>
<path d="M110.459 14.6338H116.446" stroke="white" stroke-width="0.119586" stroke-miterlimit="10"/>
<path d="M113.454 17.6139C113.454 15.9684 114.788 14.6338 116.434 14.6338" stroke="white" stroke-width="0.119586" stroke-miterlimit="10"/>
<path d="M113.453 36.3126L97.6461 16.203C97.3283 15.7988 97.3974 15.2128 97.8039 14.8947L98.1223 14.6436C96.8285 14.7392 95.8071 15.8155 95.8071 17.1357L96.0368 18.0063L112.37 38.7881H113.456V36.315L113.453 36.3126Z" fill="white"/>
<path d="M124.348 31.0576H132.884" stroke="white" stroke-width="0.119586" stroke-miterlimit="10"/>
<path d="M124.023 38.7861H118.039L119.665 38.3269C120.779 38.0112 121.693 37.2124 122.152 36.1481L131.176 15.1846" stroke="white" stroke-width="0.119586" stroke-miterlimit="10"/>
<path d="M144.259 38.7852H138.272" stroke="white" stroke-width="0.119586" stroke-miterlimit="10"/>
<path d="M141.447 36.0398L131.61 14L130.347 16.9753L139.442 37.3935C139.652 37.8623 139.442 38.4147 138.971 38.6228L138.6 38.7879C139.88 39.0127 141.133 38.2162 141.456 36.9367L141.447 36.0374V36.0398Z" fill="white"/>
<path d="M170.47 29.5797C170.47 28.7522 171.14 28.0825 171.967 28.0825H172.467V27.9677H170.221C169.793 34.3751 165.426 39.2304 160.097 39.2304C154.486 39.2304 149.937 33.6433 149.937 26.7503C149.937 19.8574 154.489 14.2703 160.099 14.2703C164.141 14.2703 167.633 17.169 169.269 21.3665L170.444 18.9437C168.05 15.9373 164.306 14 160.099 14C152.872 14 147.012 19.7091 147.012 26.7503C147.012 33.7916 152.872 39.5006 160.099 39.5006C164.323 39.5006 168.078 37.549 170.47 34.5234V29.5797Z" fill="white"/>
<path d="M166.189 28.0273H172.175" stroke="white" stroke-width="0.119586" stroke-miterlimit="10"/>
<path d="M169.183 34.6747L170.472 28.2338L170.644 27.9922C169.116 28.2696 167.954 29.6569 167.954 31.3286V35.7534C167.954 35.8227 167.966 35.8897 167.98 35.9566L169.183 34.6771V34.6747Z" fill="white"/>
</g>
</svg>
