<svg width="222" height="100" viewBox="0 0 222 100" fill="none" xmlns="http://www.w3.org/2000/svg">
<path d="M60.5374 49.4427C61.2945 49.0634 62.5334 48.5859 63.2905 48.3815C64.2168 48.1299 65.3416 48.0061 66.732 48.0002C67.9827 47.9943 69.2609 48.1122 69.9767 48.295C70.6257 48.464 71.8646 48.9435 72.7299 49.3621C73.5951 49.7807 74.834 50.557 75.483 51.0856C76.1319 51.6163 77.0306 52.5262 77.481 53.1118C77.9313 53.6974 78.6098 54.7941 78.9893 55.5507C79.3669 56.3073 79.8329 57.5002 80.0237 58.2037C80.2597 59.0645 80.3737 60.1847 80.3737 61.6429C80.3737 63.0972 80.2597 64.2213 80.0257 65.0821C79.8349 65.7856 79.3531 66.9727 78.9559 67.7234C78.5606 68.4741 77.8369 69.5235 77.3512 70.0561C76.8655 70.5887 75.9353 71.3728 75.2863 71.7973C74.6374 72.2218 73.6423 72.7426 73.074 72.9529C72.5057 73.1632 71.2235 73.4717 70.2225 73.6368C69.2216 73.8019 68.138 74.1026 67.8135 74.305C67.4891 74.5074 67.0466 74.9928 66.8303 75.3819C66.614 75.771 66.3937 76.0894 66.3386 76.0874C66.2836 76.0874 65.4635 75.7986 64.5137 75.4487C63.5639 75.097 62.7871 74.7216 62.7871 74.6135C62.7891 74.5054 63.145 73.8648 63.5796 73.1887C64.0162 72.5127 64.793 71.6539 65.3062 71.2785C65.8195 70.9012 66.7713 70.4236 67.4202 70.2133C68.0692 70.005 69.1311 69.781 69.7801 69.7161C70.5234 69.6415 71.4693 69.3526 72.3366 68.9359C73.2018 68.5173 73.9924 67.9533 74.4683 67.4129C74.8832 66.9412 75.3925 66.2239 75.599 65.8191C75.8055 65.4142 76.1064 64.5299 76.2676 63.8538C76.4269 63.1778 76.5587 62.1834 76.5587 61.6429C76.5587 61.1025 76.423 60.0864 76.2558 59.3829C76.0887 58.6793 75.6698 57.5847 75.3237 56.948C74.9796 56.3112 74.2972 55.3777 73.8114 54.8727C73.3257 54.3656 72.5273 53.6994 72.0416 53.3909C71.5558 53.0804 70.5824 52.6244 69.8784 52.3748C68.9305 52.0407 68.1675 51.9228 66.9286 51.9209C66.0102 51.9209 64.8146 52.0388 64.2738 52.1822C63.733 52.3277 62.8048 52.6932 62.2089 52.9959C61.6151 53.2985 60.6121 54.0414 59.9828 54.6467C59.3536 55.252 58.6082 56.1442 58.329 56.6316C58.0478 57.1189 57.6545 58.0033 57.4539 58.5968C57.2553 59.1923 57.039 60.2083 56.978 60.8568C56.9052 61.6056 56.978 62.5744 57.1766 63.5099C57.3497 64.3215 57.7312 65.4692 58.0261 66.0647C58.3192 66.6602 59.0586 67.6762 59.6682 68.3247C60.3211 69.0204 61.2906 69.7771 62.032 70.1721C62.7242 70.5396 63.3122 70.8717 63.3397 70.909C63.3672 70.9464 63.1017 71.7757 62.7497 72.7524C62.3977 73.7292 62.0674 74.5231 62.0123 74.5192C61.9592 74.5133 61.2513 74.1812 60.4391 73.7822C59.3142 73.23 58.5394 72.6345 57.1786 71.2805C55.7253 69.834 55.2396 69.1934 54.571 67.8334C54.1206 66.9157 53.5661 65.4103 53.338 64.4925C53.0076 63.164 52.9466 62.4801 53.039 61.1516C53.102 60.2338 53.2908 58.9505 53.4559 58.302C53.6211 57.6535 54.1049 56.4154 54.5316 55.5507C54.9584 54.686 55.688 53.5166 56.1521 52.9526C56.6181 52.3886 57.4854 51.5219 58.0792 51.0286C58.6731 50.5334 59.7803 49.82 60.5374 49.4427Z" fill="white" fill-opacity="0.94"/>
<path d="M127.301 73.1389V67.3414V61.5439H130.644L130.546 73.0406L127.301 73.1389Z" fill="white" fill-opacity="0.94"/>
<path d="M145.753 57.6478C145.735 56.8008 145.794 56.0481 145.885 55.9774C145.975 55.9047 148.512 55.8457 156.996 55.8457V59.1866H153.062V73.1398L149.818 73.0416L149.719 59.1866H145.786L145.753 57.6478Z" fill="white" fill-opacity="0.94"/>
<path d="M133.594 73.1398V64.4928V55.8457H143.623V59.1866H136.937V62.724H142.837V65.6719H136.937V69.7989H143.623V73.1398H133.594Z" fill="white" fill-opacity="0.94"/>
<path d="M127.222 56.4643C127.399 56.2088 127.82 55.8806 128.158 55.7352C128.499 55.5878 128.843 55.464 128.923 55.46C129.004 55.4561 129.38 55.5839 129.759 55.747C130.237 55.9514 130.542 56.2658 130.756 56.7787C130.927 57.1895 131.016 57.7555 130.953 58.0561C130.892 58.3529 130.575 58.8186 130.251 59.0879C129.869 59.4063 129.419 59.5792 128.973 59.5792C128.593 59.5792 128.107 59.4908 127.891 59.3827C127.675 59.2746 127.364 58.9208 127.203 58.5966C127.039 58.2723 126.908 57.7633 126.906 57.4666C126.906 57.1698 127.047 56.7178 127.222 56.4643Z" fill="white" fill-opacity="0.94"/>
<path d="M113.339 56.4721C114.041 56.1282 115.105 55.7705 115.698 55.6742C116.292 55.5779 116.914 55.4875 117.075 55.4757C117.236 55.4639 117.946 55.5484 118.648 55.6624C119.35 55.7764 120.457 56.1223 121.106 56.4328C121.755 56.7413 122.719 57.3761 123.246 57.8438C123.773 58.3116 124.282 58.85 124.377 59.0387C124.514 59.3158 124.32 59.5536 123.368 60.267C122.719 60.7524 122.121 61.1533 122.04 61.1553C121.96 61.1572 121.584 60.8467 121.205 60.4655C120.825 60.0842 120.074 59.5772 119.533 59.3394C118.855 59.0426 118.155 58.909 117.272 58.907C116.361 58.9051 115.71 59.0328 115.01 59.3492C114.469 59.5949 113.695 60.1215 113.287 60.5224C112.882 60.9214 112.355 61.6918 112.117 62.2322C111.817 62.9141 111.685 63.6059 111.685 64.4922C111.685 65.3786 111.817 66.0703 112.117 66.7523C112.355 67.2927 112.882 68.0631 113.287 68.462C113.695 68.8629 114.469 69.3896 115.01 69.6353C115.708 69.9497 116.363 70.0794 117.272 70.0794C118.18 70.0794 118.835 69.9517 119.533 69.6333C120.074 69.3896 120.802 68.9062 121.781 67.9314L122.526 68.4699C122.935 68.7647 123.535 69.2285 124.449 69.9949L123.368 70.9972C122.774 71.5494 121.755 72.2549 121.106 72.5655C120.457 72.876 119.329 73.2199 118.599 73.3299C117.693 73.4695 116.851 73.4695 115.944 73.3299C115.215 73.2199 114.041 72.8504 113.339 72.5085C112.585 72.1429 111.61 71.4394 110.965 70.7948C110.32 70.1502 109.616 69.1754 109.25 68.4227C108.908 67.7192 108.538 66.5479 108.428 65.8188C108.289 64.9128 108.289 64.0717 108.428 63.1657C108.538 62.4366 108.908 61.2653 109.25 60.5618C109.616 59.8091 110.32 58.8343 110.965 58.1897C111.606 57.549 112.591 56.8357 113.339 56.4721Z" fill="white" fill-opacity="0.94"/>
<path fill-rule="evenodd" clip-rule="evenodd" d="M97.803 55.4721C98.0744 55.4642 98.8708 55.5801 99.5729 55.7275C100.275 55.873 101.337 56.2385 101.933 56.5392C102.529 56.8399 103.502 57.5474 104.096 58.1133C104.69 58.6793 105.415 59.5735 105.706 60.0982C105.997 60.623 106.373 61.584 106.542 62.2325C106.711 62.881 106.851 63.897 106.851 64.4925C106.851 65.088 106.711 66.104 106.542 66.7525C106.373 67.4011 106.019 68.3306 105.756 68.816C105.492 69.3015 104.812 70.1701 104.243 70.7459C103.624 71.3728 102.66 72.0626 101.834 72.4694C101.077 72.8428 99.8816 73.2398 99.1796 73.3499C98.2966 73.4894 97.506 73.4894 96.6231 73.3479C95.921 73.2339 94.7686 72.8664 94.0666 72.5304C93.3645 72.1943 92.3026 71.4514 91.7068 70.8815C91.1109 70.3096 90.3872 69.4115 90.0962 68.8868C89.8051 68.3621 89.4295 67.4011 89.2604 66.7525C89.0913 66.104 88.9517 65.088 88.9517 64.4925C88.9517 63.897 89.0913 62.881 89.2604 62.2325C89.4295 61.584 89.8051 60.623 90.0962 60.0982C90.3872 59.5735 91.1109 58.6793 91.7068 58.1133C92.3026 57.5474 93.2741 56.8399 93.8699 56.5392C94.4658 56.2385 95.4825 55.8769 96.1314 55.7374C96.7804 55.5978 97.5336 55.478 97.803 55.4721ZM94.7804 59.8329C94.2554 60.1808 93.5651 60.8627 93.2485 61.3481C92.9339 61.8335 92.5799 62.5862 92.4639 63.0186C92.3478 63.4509 92.2948 64.3353 92.3459 64.9838C92.397 65.6324 92.6271 66.5383 92.8591 66.9982C93.0912 67.4581 93.6123 68.1597 94.0174 68.5586C94.4225 68.9556 95.1541 69.4587 95.6398 69.6768C96.2573 69.952 96.9417 70.0699 97.9013 70.0679C98.7764 70.0659 99.565 69.9382 100.064 69.7201C100.497 69.5294 101.16 69.1285 101.539 68.8259C101.919 68.5232 102.493 67.802 102.818 67.2203C103.345 66.275 103.408 65.9841 103.406 64.4925C103.404 63.1463 103.317 62.6609 102.963 61.9868C102.721 61.527 102.236 60.8627 101.884 60.5109C101.532 60.1572 100.845 59.6737 100.359 59.4359C99.8737 59.1982 98.9888 58.9604 98.3929 58.9073C97.7971 58.8542 96.9574 58.8994 96.5247 59.0075C96.0921 59.1156 95.3075 59.487 94.7804 59.8329Z" fill="white" fill-opacity="0.94"/>
<path fill-rule="evenodd" clip-rule="evenodd" d="M163.086 61.1534C164.223 61.1553 164.795 61.2614 165.55 61.6132C166.091 61.8667 166.836 62.3305 167.204 62.643C167.574 62.9574 168.083 63.547 168.335 63.9519C168.588 64.3567 168.936 65.2411 169.107 65.9171C169.281 66.5931 169.369 67.4323 169.188 68.4228H164.665C162.177 68.4228 160.138 68.4896 160.136 68.5702C160.132 68.6507 160.331 68.977 160.579 69.2934C160.824 69.6098 161.381 70.0284 161.814 70.2229C162.246 70.4175 162.82 70.5767 163.092 70.5767C163.361 70.5767 163.937 70.4136 165.157 69.8594L167.635 71.4689L166.986 72.0388C166.63 72.3533 166.05 72.7286 165.698 72.8741C165.346 73.0195 164.638 73.2298 164.124 73.3418C163.473 73.4833 162.862 73.4813 162.109 73.3339C161.513 73.218 160.762 72.9979 160.437 72.8426C160.113 72.6874 159.462 72.2275 158.99 71.8187C158.502 71.3962 157.881 70.5669 157.548 69.8967C157.007 68.808 156.97 68.5898 157.043 67.0471C157.102 65.8405 157.243 65.1448 157.552 64.5414C157.786 64.0816 158.266 63.3878 158.618 63.0007C158.97 62.6135 159.786 62.0377 160.431 61.7233C161.414 61.2457 161.849 61.1514 163.086 61.1534V61.1534ZM160.683 65.074C160.386 65.4022 160.142 65.7599 160.142 65.868C160.142 65.9898 161.257 66.0645 163.092 66.0645C164.714 66.0645 166.046 65.9977 166.048 65.9171C166.051 65.8365 165.875 65.526 165.654 65.2293C165.436 64.9325 165.011 64.565 164.714 64.4137C164.417 64.2624 163.863 64.0855 163.485 64.0226C163.086 63.9558 162.467 64.0265 162.01 64.1916C161.578 64.3488 160.98 64.7458 160.683 65.074Z" fill="white" fill-opacity="0.94"/>
<path d="M61.324 77.4625C61.4873 77.1383 61.8629 76.7432 62.1598 76.586C62.4568 76.4288 63.0762 76.2952 63.5364 76.2912C64.2345 76.2853 64.4862 76.3974 65.0604 76.9712C65.6642 77.5745 65.7487 77.7809 65.7487 78.6417C65.7487 79.4926 65.6602 79.7166 65.0801 80.3121C64.5295 80.8781 64.2679 81 63.6052 81C63.1608 81 62.5334 80.8663 62.209 80.7052C61.8845 80.544 61.4873 80.1451 61.324 79.8208C61.1608 79.4965 61.0291 78.9659 61.0291 78.6417C61.0291 78.3174 61.1608 77.7868 61.324 77.4625Z" fill="white" fill-opacity="0.94"/>
</svg>
