<svg width="222" height="100" viewBox="0 0 222 100" fill="none" xmlns="http://www.w3.org/2000/svg">
<g clip-path="url(#clip0_2308_9644)">
<path d="M153.569 75.2276C154.716 79.5814 152.122 84.039 147.768 85.1862L92.6159 99.728C88.2621 100.875 83.81 98.2804 82.6573 93.9266L68.1155 38.7747C66.9683 34.4264 69.5686 29.9633 73.9169 28.8161L129.069 14.2743C133.423 13.1271 137.88 15.7219 139.027 20.0757L153.575 75.2276H153.569Z" fill="white" fill-opacity="0.2"/>
<mask id="mask0_2308_9644" style="mask-type:luminance" maskUnits="userSpaceOnUse" x="67" y="14" width="87" height="86">
<path opacity="0.8" d="M153.569 75.2276C154.716 79.5814 152.122 84.039 147.768 85.1862L92.6159 99.728C88.2621 100.875 83.81 98.2804 82.6573 93.9266L68.1155 38.7747C66.9683 34.4264 69.5686 29.9633 73.9169 28.8161L129.069 14.2743C133.423 13.1271 137.88 15.7219 139.027 20.0757L153.575 75.2276H153.569Z" fill="white"/>
</mask>
<g mask="url(#mask0_2308_9644)">
<path d="M118.214 57.6784C118.214 58.1482 117.821 58.536 117.319 58.536C116.816 58.536 116.406 58.1645 116.406 57.6893C116.406 57.2195 116.805 56.8316 117.302 56.8262C117.799 56.8262 118.209 57.2031 118.214 57.6729V57.6784Z" fill="white"/>
<path d="M126.594 58.5166C126.594 59.0192 126.173 59.4289 125.643 59.4289C125.114 59.4289 124.682 59.0301 124.677 58.533C124.677 58.0304 125.097 57.6207 125.627 57.6152C126.157 57.6152 126.588 58.014 126.594 58.5166Z" fill="white"/>
<path d="M143.19 64.5788C142.611 64.109 127.55 67.6106 121.366 73.7945C121.984 70.0361 122.481 67.2337 122.481 67.2337C123.655 62.3719 119.575 59.7989 118.285 64.7919C116.024 73.5596 115.133 82.1743 119.05 90.6197C119.263 87.6152 119.984 82.5239 120.716 77.8642C123.022 81.4642 129.293 85.9491 133.084 87.1673C136.87 88.3909 140.754 88.9208 140.754 88.9208C142.261 89.265 143.223 87.3749 142.059 86.3642C137.804 82.6769 133.035 78.1374 133.073 76.5258C133.204 70.8828 146.337 67.1245 143.195 64.5788H143.19Z" fill="white"/>
<path d="M115.548 75.4053C114.898 62.9502 95.8005 54.4119 89.1414 59.6453C85.7272 62.3275 88.5842 68.2218 91.0042 75.7713C92.5502 80.5894 83.2581 89.6631 93.6974 91.9465C105.743 93.6618 115.871 83.7087 115.543 75.4107M110.457 77.0769C109.976 78.3606 105.737 83.1788 103.487 82.7308C102.454 82.048 105.989 77.6232 104.628 74.2089C102.29 68.8664 96.3632 64.3596 98.5264 64.9714C109.457 68.7462 112.331 72.8651 110.452 77.0769" fill="white"/>
<path d="M85.3394 40.8976L83.5858 41.3729L81.439 33.4846C82.5479 33.1405 83.2417 32.9329 83.5312 32.851C84.6838 32.5396 85.6835 32.627 86.5412 33.1186C87.3988 33.6103 87.9779 34.4133 88.2783 35.5277C89.0486 38.3683 88.0707 40.1547 85.3339 40.9031L85.3394 40.8976ZM83.1761 34.3259L84.6401 39.7176C84.8696 39.6794 85.1209 39.6193 85.3831 39.5483C86.0932 39.3571 86.5739 38.9474 86.8362 38.3246C87.0984 37.7019 87.1038 36.9262 86.8525 36.003C86.3937 34.315 85.3776 33.6813 83.8098 34.1129C83.6568 34.1566 83.4493 34.2221 83.1761 34.3259Z" fill="white"/>
<path d="M92.9486 38.8282L91.6812 34.163L90.9438 34.3652L90.6433 33.2617L92.7465 32.6881L94.3143 38.4622L92.9486 38.8337V38.8282ZM91.4627 30.6286C91.6758 30.5686 91.8834 30.5959 92.0745 30.7106C92.2712 30.8198 92.3969 30.9837 92.4515 31.2022C92.5061 31.4207 92.4843 31.6229 92.375 31.8141C92.2657 32.0107 92.1019 32.1364 91.8834 32.191C91.6648 32.2456 91.4627 32.2238 91.2715 32.109C91.0749 31.9998 90.9492 31.8359 90.8946 31.6174C90.84 31.3989 90.8618 31.1968 90.9711 31.0056C91.0803 30.8089 91.2442 30.6833 91.4627 30.6286Z" fill="white"/>
<path d="M97.8384 39.0913L98.4065 37.8075C98.9965 38.108 99.5755 38.1845 100.155 38.026C100.542 37.9223 100.848 37.7748 101.067 37.5945C101.285 37.4088 101.367 37.2176 101.318 37.0154C101.225 36.6768 100.898 36.5784 100.34 36.7314C100.187 36.7751 99.9688 36.8516 99.6793 36.9717C99.3898 37.0865 99.1713 37.1684 99.0183 37.2066C98.0897 37.4579 97.5379 37.2503 97.3577 36.5893C97.3085 36.3982 97.3303 36.1906 97.4396 35.9666C97.5434 35.7426 97.6854 35.5569 97.8657 35.4149C97.09 35.169 96.5983 34.6501 96.3853 33.8689C96.2159 33.2516 96.3033 32.678 96.6475 32.1536C96.9917 31.6237 97.4942 31.2741 98.1552 31.0938C98.6742 30.9518 99.133 30.9299 99.5318 31.0337L99.8924 30.2744L101.056 30.8644L100.542 31.509C100.859 31.7876 101.078 32.1536 101.203 32.6125C101.384 33.268 101.324 33.847 101.029 34.3551C100.734 34.8577 100.28 35.1909 99.6739 35.3548C99.5755 35.3821 99.4444 35.4094 99.2805 35.4312L99.0511 35.4586C99.0511 35.4586 98.9419 35.5296 98.7944 35.6552C98.6469 35.7754 98.5868 35.8792 98.6086 35.9611C98.6469 36.1032 98.7889 36.1414 99.0402 36.0758C99.1494 36.0431 99.3297 35.9666 99.581 35.841C99.8268 35.7153 100.045 35.6279 100.231 35.5787C101.542 35.2237 102.34 35.5678 102.629 36.6221C102.788 37.2066 102.651 37.7311 102.214 38.2063C101.782 38.6816 101.193 39.0203 100.45 39.2224C99.5646 39.4628 98.696 39.419 97.8384 39.0913ZM97.7619 33.4974C97.8548 33.8416 98.0241 34.0874 98.2699 34.2404C98.5158 34.3988 98.7944 34.4316 99.1167 34.3442C99.4335 34.2568 99.6575 34.0929 99.7722 33.8416C99.8869 33.5958 99.8978 33.2953 99.805 32.9402C99.7285 32.6507 99.5646 32.4267 99.3242 32.2792C99.0839 32.1317 98.8162 32.0935 98.5212 32.1754C98.2098 32.2574 97.9859 32.4267 97.8438 32.6726C97.7018 32.9184 97.6745 33.197 97.7564 33.5029L97.7619 33.4974Z" fill="white"/>
<path d="M105.754 35.3468L104.486 30.6816L103.749 30.8837L103.448 29.7802L105.551 29.2067L107.119 34.9808L105.754 35.3522V35.3468ZM104.273 27.1472C104.486 27.0871 104.694 27.1144 104.885 27.2291C105.082 27.3384 105.207 27.5023 105.262 27.7208C105.317 27.9393 105.295 28.1414 105.185 28.3326C105.076 28.5293 104.912 28.6549 104.694 28.7095C104.481 28.7696 104.273 28.7423 104.082 28.6276C103.885 28.5183 103.76 28.3545 103.705 28.136C103.65 27.9174 103.672 27.7153 103.781 27.5241C103.891 27.3275 104.055 27.2018 104.273 27.1472Z" fill="white"/>
<path d="M109.605 29.2618L108.938 29.4421L108.643 28.3605L109.31 28.1802L108.993 27.0057L110.206 26.1426L110.659 27.8142L112.243 27.3826L112.538 28.4642L110.954 28.8958L111.642 31.4251C111.757 31.8402 111.899 32.1134 112.074 32.2499C112.249 32.3865 112.5 32.4083 112.822 32.3209C113.145 32.2335 113.423 32.0642 113.658 31.8129L113.997 33.053C113.713 33.2441 113.281 33.419 112.702 33.5774C112.129 33.7358 111.642 33.6921 111.244 33.4517C110.845 33.2114 110.566 32.7907 110.402 32.1898L109.61 29.2673L109.605 29.2618Z" fill="white"/>
<path d="M120.094 30.8243C120.028 31.0592 119.859 31.2832 119.591 31.4908C119.323 31.6984 119.023 31.8513 118.69 31.9387C118.067 32.1081 117.537 32.0862 117.095 31.8732C116.652 31.6601 116.357 31.2668 116.199 30.6932C116.018 30.0268 116.128 29.4368 116.526 28.9233C116.925 28.4098 117.586 28.0274 118.509 27.7761C118.668 27.7324 118.859 27.7106 119.094 27.7051C118.908 27.0277 118.389 26.8037 117.526 27.0386C117.018 27.1752 116.619 27.3773 116.324 27.6395L115.751 26.6726C116.155 26.323 116.674 26.0608 117.313 25.886C118.193 25.6456 118.892 25.673 119.411 25.9625C119.93 26.252 120.339 26.9567 120.645 28.0711L120.979 29.3057C121.186 30.0759 121.476 30.5184 121.836 30.6277C121.776 30.8516 121.689 31.0046 121.563 31.0865C121.437 31.1685 121.29 31.234 121.11 31.2832C120.918 31.3378 120.722 31.3105 120.531 31.2122C120.339 31.1084 120.192 30.9827 120.088 30.8298L120.094 30.8243ZM119.383 28.7212C119.143 28.7376 118.963 28.7594 118.848 28.7922C117.783 29.0817 117.346 29.5734 117.537 30.2726C117.679 30.7916 118.051 30.9664 118.646 30.8025C119.454 30.584 119.749 30.0705 119.531 29.262L119.383 28.7212Z" fill="white"/>
<path d="M122.983 22.1492L124.245 21.4609L126.01 27.9507C126.201 28.6608 126.529 29.0268 126.993 29.0487C126.895 29.5021 126.589 29.7971 126.086 29.9337C125.474 30.0975 125.054 29.7588 124.824 28.9121L122.989 22.1547L122.983 22.1492Z" fill="white"/>
<path d="M82.1601 54.7202L78.5657 51.53L77.9265 53.1961L78.6039 55.6926L76.9869 56.1351L74.5068 47.0178L76.1238 46.5753L77.3092 50.94L79.2212 45.734L81.0621 45.2314L79.2867 49.9895L84.0885 54.1958L82.1547 54.7202H82.1601Z" fill="white"/>
<path d="M89.0484 52.845L87.9996 48.9938C87.8466 48.4256 87.6226 48.0378 87.3331 47.8357C87.0436 47.6335 86.6503 47.6008 86.1586 47.7319C85.9292 47.792 85.7052 47.9231 85.4812 48.1252C85.2573 48.3218 85.0989 48.5404 85.006 48.7698L86.317 53.5879L84.7602 54.0086L82.9465 47.344L84.0664 47.0381L84.5198 47.5844C84.8093 46.9725 85.3665 46.5519 86.1914 46.3279C86.9835 46.1149 87.6718 46.1804 88.2618 46.5301C88.8518 46.8797 89.2615 47.4806 89.4909 48.3328L90.6053 52.4189L89.0484 52.8395V52.845Z" fill="white"/>
<path d="M90.9386 48.7315C90.66 47.7155 90.731 46.8086 91.1462 46.0111C91.5613 45.2135 92.2496 44.6836 93.2111 44.4214C94.2217 44.1483 95.0903 44.2412 95.8223 44.7C96.5488 45.1644 97.0569 45.9237 97.3464 46.9944C97.6359 48.0542 97.5813 48.9774 97.177 49.7585C96.7783 50.5397 96.079 51.0641 95.0903 51.3373C94.0797 51.6104 93.2056 51.5121 92.4736 51.0314C91.7416 50.5506 91.2281 49.7858 90.944 48.737L90.9386 48.7315ZM92.5556 48.2945C92.9543 49.764 93.6863 50.354 94.7407 50.0644C95.2268 49.9333 95.5601 49.6384 95.7403 49.1795C95.9206 48.7206 95.9151 48.1361 95.7239 47.4314C95.3306 45.9838 94.6041 45.4047 93.5552 45.6888C93.0691 45.8199 92.7358 46.1149 92.5556 46.5738C92.3753 47.0326 92.3753 47.6062 92.5556 48.2891V48.2945Z" fill="white"/>
<path d="M106.076 48.3451L105.508 48.4981L102.563 44.9036L101.853 49.4923L101.279 49.6507L96.9202 43.5434L98.559 43.1009L100.979 46.7117L101.525 42.2924L102.082 42.1394L104.858 45.6793L105.213 41.2872L106.742 40.8721L106.07 48.3451H106.076Z" fill="white"/>
<path d="M107.261 38.0632L108.715 37.2656L110.752 44.755C110.976 45.5745 111.353 46.0006 111.888 46.0224C111.774 46.5468 111.424 46.8855 110.845 47.0439C110.14 47.2351 109.654 46.8418 109.386 45.864L107.267 38.0577L107.261 38.0632Z" fill="white"/>
<path d="M118.411 41.7887L113.653 43.0834C113.828 43.6078 114.123 43.9683 114.538 44.1704C114.953 44.3726 115.445 44.3999 116.013 44.2415C116.723 44.0503 117.214 43.717 117.482 43.2472L118.411 44.2742C117.985 44.8697 117.225 45.3122 116.138 45.6072C115.122 45.8858 114.237 45.8038 113.483 45.3723C112.73 44.9352 112.211 44.1868 111.921 43.1216C111.637 42.0728 111.73 41.1332 112.2 40.3028C112.669 39.478 113.363 38.9371 114.27 38.6913C115.237 38.4291 116.089 38.5056 116.832 38.9207C117.575 39.3359 118.067 39.9914 118.307 40.8873C118.362 41.0785 118.394 41.379 118.411 41.7887ZM113.391 41.8979L116.663 41.0075C116.291 40.0625 115.619 39.7183 114.647 39.986C113.757 40.2263 113.341 40.8655 113.391 41.8979Z" fill="white"/>
<path d="M124.851 43.1045L124.742 42.7002C124.649 42.8751 124.469 43.0608 124.19 43.2465C123.912 43.4377 123.611 43.5743 123.284 43.6617C122.355 43.913 121.541 43.8201 120.847 43.3722C120.153 42.9297 119.662 42.1813 119.378 41.127C119.088 40.0727 119.165 39.1331 119.596 38.3027C120.028 37.4724 120.705 36.937 121.628 36.6858C122.136 36.5492 122.623 36.5273 123.092 36.6202L122.366 33.9489L123.819 33.1514L126.408 42.6729L124.851 43.0936V43.1045ZM123.475 38.0351C123.071 37.8603 122.688 37.822 122.328 37.9203C121.705 38.0897 121.279 38.412 121.044 38.8818C120.809 39.3516 120.793 39.9416 120.984 40.6517C121.361 42.0393 122.218 42.5473 123.551 42.1867C123.699 42.1485 123.874 42.0502 124.065 41.9027C124.256 41.7552 124.376 41.6241 124.42 41.5148L123.475 38.0351Z" fill="white"/>
<path d="M127.932 44.106L128.588 42.6256C129.265 42.9752 129.943 43.0626 130.609 42.8769C131.057 42.7567 131.407 42.5873 131.663 42.3743C131.92 42.1613 132.013 41.9427 131.953 41.7078C131.844 41.3145 131.472 41.2053 130.828 41.3801C130.653 41.4292 130.402 41.5166 130.068 41.6532C129.735 41.7898 129.484 41.8772 129.309 41.9264C128.238 42.2159 127.599 41.981 127.392 41.2107C127.332 40.9922 127.364 40.7519 127.484 40.4897C127.605 40.2274 127.769 40.0199 127.982 39.856C127.091 39.5664 126.518 38.971 126.272 38.0697C126.075 37.354 126.179 36.693 126.572 36.0867C126.966 35.4803 127.55 35.0706 128.309 34.863C128.905 34.6991 129.435 34.6773 129.899 34.792L130.314 33.918L131.658 34.6008L131.063 35.3437C131.429 35.6606 131.68 36.0867 131.822 36.622C132.029 37.3814 131.964 38.0533 131.625 38.6323C131.287 39.2114 130.762 39.5992 130.057 39.7904C129.943 39.8232 129.795 39.8505 129.599 39.8833L129.331 39.9161C129.304 39.9215 129.205 39.998 129.036 40.14C128.867 40.2821 128.796 40.4022 128.823 40.4951C128.867 40.659 129.036 40.7027 129.32 40.6262C129.451 40.5934 129.653 40.5006 129.943 40.3585C130.227 40.2165 130.478 40.1127 130.697 40.0526C132.21 39.6429 133.133 40.0417 133.466 41.2599C133.646 41.9318 133.488 42.5436 132.985 43.0899C132.483 43.6362 131.805 44.0295 130.953 44.2589C129.932 44.5375 128.927 44.4884 127.938 44.1115L127.932 44.106ZM127.845 37.649C127.954 38.0423 128.145 38.3319 128.43 38.5067C128.714 38.6869 129.036 38.7252 129.407 38.6269C129.779 38.5285 130.03 38.3319 130.167 38.0478C130.303 37.7637 130.314 37.4141 130.205 37.0099C130.112 36.6712 129.932 36.4199 129.653 36.2451C129.375 36.0703 129.069 36.0321 128.73 36.1249C128.375 36.2232 128.113 36.4144 127.949 36.6985C127.785 36.9826 127.752 37.3049 127.85 37.6545L127.845 37.649Z" fill="white"/>
<path d="M139.535 36.0485L134.777 37.3431C134.952 37.8676 135.247 38.2281 135.662 38.4302C136.077 38.6323 136.569 38.6596 137.137 38.5012C137.847 38.31 138.333 37.9768 138.606 37.507L139.535 38.534C139.109 39.1294 138.35 39.5719 137.263 39.8669C136.246 40.1455 135.362 40.0636 134.608 39.632C133.854 39.2005 133.335 38.4466 133.045 37.3814C132.761 36.3325 132.854 35.3929 133.324 34.5626C133.794 33.7377 134.487 33.1969 135.394 32.9511C136.361 32.6889 137.213 32.7653 137.956 33.1805C138.699 33.5957 139.191 34.2512 139.431 35.1471C139.48 35.3383 139.519 35.6388 139.535 36.0485ZM134.509 36.1577L137.782 35.2673C137.41 34.3222 136.738 33.9781 135.766 34.2458C134.881 34.4861 134.46 35.1253 134.509 36.1577Z" fill="white"/>
</g>
</g>
<defs>
<clipPath id="clip0_2308_9644">
<rect width="86" height="86" fill="white" transform="translate(67.8423 14)"/>
</clipPath>
</defs>
</svg>
