<svg width="222" height="100" viewBox="0 0 222 100" fill="none" xmlns="http://www.w3.org/2000/svg">
<path d="M12 55.7453H26.2238V80.1943H34.9096V55.7453H49.1408V47.3866H12V55.7453ZM78.0414 59.4986H60.1313V47.3866H51.4609V80.1864H60.1313V67.842H78.0414V80.1864H86.7351V47.3866H78.0414V59.4986ZM201.26 67.7953C201.166 70.4474 200.963 72.4095 197.971 72.3314H184.809C181.818 72.4091 181.592 70.4474 181.513 67.7801V59.7777C181.607 57.2032 181.896 55.3575 184.802 55.4273H197.963C200.877 55.3575 201.166 57.2032 201.26 59.7929V67.7953ZM198.026 47.3944H184.739C177.179 47.1694 172.945 51.5811 172.773 59.7079V68.0513C172.945 76.2243 177.147 80.582 184.747 80.3727H198.033C205.602 80.582 209.82 76.2243 210 68.0592V59.7153C209.82 51.5821 205.587 47.1704 198.026 47.3944ZM111.723 57.2421L119.916 72.0213H110.683C109.059 72.0213 108.372 72.2926 107.41 74.0685C106.746 75.3245 104.028 80.3727 104.028 80.3727H134.78L116.104 47.3866H107.325L88.774 80.3722H98.9047L111.723 57.2421ZM161.455 68.5319L161.447 69.0749C161.229 71.3388 160.495 72.3933 158.222 72.3393H145.06C142.06 72.4091 141.857 70.4474 141.772 67.7801V59.7777C141.857 57.2032 142.146 55.3502 145.06 55.4273H158.206C160.487 55.3733 161.244 56.4278 161.455 58.6922V59.2273L170.211 59.2194L170.195 58.5526C169.641 50.9384 165.267 47.193 158.275 47.3871H144.99C137.436 47.1772 133.195 51.5738 133.03 59.7084V68.0518C133.195 76.2169 137.405 80.5825 145.005 80.3727H158.291C165.274 80.5668 169.657 76.8523 170.195 69.2145L170.211 68.5246L161.455 68.5319Z" fill="white"/>
</svg>
