<svg width="222" height="100" viewBox="0 0 222 100" fill="none" xmlns="http://www.w3.org/2000/svg">
<path fill-rule="evenodd" clip-rule="evenodd" d="M104.907 7.39965C100.46 8.04876 95.5815 9.58272 91.5715 11.5927C83.9133 15.4313 76.4168 22.9262 72.5774 30.5828C67.9128 39.885 66.7504 50.8399 69.3799 60.7174C70.5248 65.0176 70.6601 65.1627 74.9728 66.7086C78.5208 67.9802 80.6627 68.2842 86.0136 68.2753C92.4822 68.2644 95.7969 67.7526 109.491 64.6504C120.39 62.1816 124.716 61.5472 130.684 61.5426C138.207 61.5365 143.036 62.9124 148.007 66.4777L149.928 67.8558L150.857 65.4299C155.255 53.9411 154.661 41.4807 149.197 30.5828C145.357 22.9262 137.861 15.4313 130.202 11.5927C122.534 7.74882 113.159 6.19482 104.907 7.39965ZM136.349 32.5106C138.487 33.0674 139.801 33.8096 141.136 35.2149C142.317 36.4573 143.629 38.7086 143.629 39.4922C143.629 39.8107 142.92 40.0573 140.453 40.5976C137.376 41.2721 136.776 41.2893 136.776 40.7044C136.776 40.2271 135.513 38.7457 134.787 38.3699C132.032 36.9458 128.647 38.3787 127.767 41.3408C127.267 43.0232 127.262 47.3602 127.759 49.0304C128.428 51.284 130.553 52.6579 132.878 52.3394C135.017 52.0461 136.23 50.9376 137.01 48.562C137.182 48.0387 137.457 47.6122 137.62 47.6147C137.784 47.617 139.308 48.0491 141.006 48.5749L144.095 49.5308L143.667 50.7943C142.678 53.717 140.688 56.0024 138.089 57.2024C136.822 57.787 136.249 57.8797 133.334 57.9687C131.361 58.0294 129.438 57.9497 128.583 57.7723C126.645 57.3701 124.419 56.2206 123.24 55.0132L122.269 54.019L123.02 52.5274C124.046 50.4915 124.413 48.5199 124.409 45.0728C124.405 41.8841 124.005 39.8998 122.895 37.5548L122.235 36.1614L123.182 35.1918C124.279 34.0687 126.157 33.0638 128.146 32.5355C130.01 32.0404 134.492 32.027 136.349 32.5106ZM85.506 40.9752C85.506 49.4671 85.5126 49.575 86.0778 50.4139C86.9275 51.6746 88.1639 52.2965 89.8207 52.2965C91.5677 52.2965 92.7809 51.636 93.5601 50.2606C94.1152 49.2809 94.1271 49.0829 94.1314 40.8224L94.1355 32.385H97.9546H101.773L101.698 41.5837L101.623 50.7823L100.941 52.2376C99.9904 54.2649 99.1305 55.3129 97.5647 56.352C95.6563 57.6185 93.8665 58.0152 90.0847 58.0101C84.9065 58.0027 82.2252 57.1372 80.1846 54.8135C77.9899 52.3145 77.6378 50.3028 77.6378 40.2621V32.385H81.5719H85.506V40.9752ZM116.518 33.1189C119.382 34.039 121.648 36.2858 122.689 39.2362C123.412 41.283 123.709 44.8021 123.397 47.6106C123.044 50.7882 122.125 52.8926 120.288 54.7293C117.782 57.2351 115.505 57.7391 106.636 57.7518L100.481 57.7606V56.3599C100.481 55.3187 100.637 54.7118 101.09 53.9946C102.578 51.6378 102.623 51.2876 102.712 41.4256L102.795 32.3223L108.808 32.4479C114.045 32.5573 115.04 32.6438 116.518 33.1189ZM108.095 45.2347V52.2478L110.302 52.0689C113.65 51.7971 114.644 51.1825 115.417 48.9048C115.789 47.8068 115.795 42.9811 115.425 41.6471C114.751 39.2149 113.216 38.2359 110.062 38.227L108.095 38.2214V45.2347ZM124.593 64.5116C118.612 64.8983 111.81 65.9879 102.765 68.0081C90.6309 70.7182 86.1702 71.3858 81.9526 71.1235C78.0472 70.8806 74.9733 69.8257 72.833 67.9939C72.2903 67.5295 71.7776 67.1496 71.6936 67.1496C71.6096 67.1496 71.9916 68.0462 72.5426 69.1421C76.435 76.8819 83.8877 84.3442 91.5715 88.1957C102.288 93.5672 114.659 94.2407 125.862 90.0621C129.185 88.8227 131.651 87.5481 134.898 85.3914C138.425 83.0492 143.811 77.7389 146.123 74.3254L147.707 71.9855L146.747 71.5825C144.815 70.7725 140.826 69.7136 137.751 69.1944C127.646 67.4881 112.968 68.3986 98.4871 71.63C96.5619 72.0596 95.5205 72.1885 95.3507 72.0187C94.6764 71.3445 97.7845 70.3822 106.065 68.7011C116.063 66.6713 122.381 65.9864 129.034 66.2117C135.53 66.4315 139.727 67.2664 144.771 69.3413C148.645 70.9352 148.336 70.9067 148.939 69.726C149.227 69.1617 149.373 68.6445 149.263 68.5768C147.722 67.6244 140.152 65.5776 136.139 65.0285C133.247 64.6326 127.027 64.3543 124.593 64.5116Z" fill="white"/>
</svg>
