<svg width="222" height="100" viewBox="0 0 222 100" fill="none" xmlns="http://www.w3.org/2000/svg">
<path fill-rule="evenodd" clip-rule="evenodd" d="M68.3988 14.2982C68.1715 14.5258 68.101 19.9163 68.101 37.0455C68.101 61.6254 68.0712 61.0624 69.5917 65.234C71.7012 71.0224 76.6345 76.27 82.4473 78.9092C91.2728 82.9164 102.036 81.0472 108.99 74.2997L110.795 72.5483L112.092 73.7983C118.648 80.1179 127.266 82.3993 135.847 80.0873C139.753 79.0349 145.773 75.3811 145.773 74.0631C145.773 73.2722 138.916 66.4315 138.123 66.4315C137.808 66.4315 137.195 66.6984 136.761 67.0244C133.098 69.7729 127.847 70.1499 123.439 67.9806C121.983 67.2639 119.147 64.6093 118.4 63.2632L117.952 62.4557H135.174C151.357 62.4557 152.42 62.4291 152.795 62.0143C153.868 60.8273 153.841 54.0602 152.747 50.257C150.769 43.3713 146.031 37.7343 139.693 34.7249C136.537 33.2265 134.065 32.6164 130.512 32.4596C126.917 32.3011 124.652 32.6172 121.389 33.7324C118.184 34.8277 115.385 36.5416 112.814 38.9835L110.71 40.9818L109.444 39.7456C106.009 36.393 101.773 34.171 96.7627 33.094C95.9255 32.9141 93.8621 32.7869 92.0478 32.803C88.2218 32.8376 85.264 33.5025 81.8844 35.0884L79.7642 36.0834V25.5223C79.7642 18.7176 79.6729 14.7904 79.5074 14.4806C79.2657 14.0286 78.9366 14 73.9736 14C70.2001 14 68.6117 14.085 68.3988 14.2982ZM132.497 44.4046C135.445 45.1918 138.837 47.666 140.142 49.9809L140.59 50.7766H129.409C122.856 50.7766 118.228 50.6829 118.228 50.5505C118.228 50.1966 120.024 48.0164 121.156 46.9958C122.38 45.8933 124.207 44.9304 125.987 44.4505C127.651 44.0015 130.902 43.9786 132.497 44.4046ZM95.5115 44.6963C101.837 46.346 105.904 52.5091 104.742 58.6816C104.214 61.4853 103.045 63.7369 101.105 65.689C98.5475 68.2634 95.8284 69.4134 92.3004 69.4134C85.3385 69.4134 79.757 63.8325 79.7672 56.8815C79.7724 53.3857 80.831 50.71 83.188 48.2355C86.3455 44.9207 91.1175 43.5502 95.5115 44.6963Z" fill="white"/>
</svg>
