<svg width="350" height="100" viewBox="0 0 350 100" fill="none" xmlns="http://www.w3.org/2000/svg">
<g clip-path="url(#clip0_2308_9501)">
<path d="M0 30V47.1492H69.5956V30H0ZM0 64.1318V81.281H69.5956V64.1318H0Z" fill="white"/>
<path d="M107.557 30C102.062 30 98.3995 31.332 95.9021 33.3299C92.9052 35.4944 91.7397 38.6578 91.7397 41.4883C91.7397 43.9857 92.5722 46.3167 93.9041 48.1481C95.9021 50.9786 101.729 54.142 105.892 56.3065C109.888 58.3044 113.717 59.9694 115.882 62.6334C117.38 64.2983 118.046 66.1298 118.046 68.9602C118.046 72.1237 116.714 74.4546 114.55 76.1196C112.385 77.7846 109.388 78.7836 106.225 78.7836C98.899 78.7836 94.9031 76.6191 92.7387 68.1278L90.2412 68.7937C91.0737 71.7907 91.9062 74.7876 92.5722 79.1165C96.5681 80.615 101.563 81.4475 105.559 81.4475C111.719 81.4475 116.381 79.616 119.212 76.9521C121.876 74.6211 123.208 71.4577 123.208 67.7948C123.208 64.4648 121.709 61.3014 120.211 59.6364C117.214 56.3065 113.218 54.6415 107.723 51.8111C103.394 49.6466 100.564 47.9817 98.899 46.3167C97.5671 44.9847 96.5681 42.8203 96.5681 40.8223C96.5681 38.6578 97.4006 36.8264 99.0655 35.4944C101.063 33.8294 103.894 32.8304 107.224 32.8304C115.382 32.8304 116.881 35.3279 118.379 42.4873L120.877 41.8213C120.211 38.6578 119.545 34.9949 119.212 32.1645C115.549 30.4995 111.886 30 107.557 30ZM206.789 30.8325V32.9969C211.95 32.9969 212.45 33.3299 212.45 38.3248V72.9562C212.45 77.9511 211.95 78.1176 206.789 78.1176V80.1155H229.433C236.592 80.1155 240.754 78.4506 243.418 75.7866C246.249 73.1227 247.414 69.7927 247.414 66.2963C247.414 62.4669 245.416 59.8029 242.919 57.805C239.922 55.474 235.926 54.3085 231.43 54.142V53.9755C235.759 53.3095 238.756 51.9776 240.921 49.9796C243.418 47.6487 244.251 44.6517 244.251 41.9878C244.251 38.4913 242.419 35.6609 239.755 33.8294C235.926 31.332 231.93 30.666 225.437 30.666L206.789 30.8325ZM177.985 32.1645C174.988 32.1645 172.657 33.3299 170.992 34.8284C168.661 37.1594 167.662 40.3228 167.662 44.6517V48.9806H162.501V51.1451H167.662V73.7886C167.662 78.1176 167.329 78.4506 162.501 78.4506V80.1155H177.985V78.4506C172.824 78.4506 172.491 78.1176 172.491 73.9551V51.1451H181.315V48.9806H172.491V44.9847C172.491 39.9898 173.323 37.4924 174.655 35.8274C175.654 34.8284 176.653 34.3289 177.985 34.3289C180.149 34.3289 180.982 35.8274 181.814 37.3259C182.647 38.8243 183.313 40.3228 184.978 40.3228C186.31 40.3228 186.976 39.6568 186.976 38.1583C186.976 36.8264 185.977 35.1614 183.979 33.8294C182.48 32.8304 180.815 32.1645 177.985 32.1645ZM326.334 32.1645C323.836 33.8294 321.339 34.4954 318.009 34.9949V36.4934C321.838 36.4934 322.171 36.9929 322.171 40.9888V73.9551C322.171 77.9511 322.005 78.4506 318.009 78.4506V80.1155H330.996V78.4506C327.166 78.4506 327 77.9511 327 73.9551V66.6293L330.829 62.6334L342.151 80.1155H350.143V78.4506C348.145 78.4506 346.48 78.2841 344.981 75.7866L334.325 59.6364L341.651 52.6436C343.316 51.1451 344.315 50.6456 346.313 50.4791V48.8141H335.99V50.4791C339.32 50.4791 338.987 51.6446 336.989 53.3095L327 62.9664H326.833V32.4975L326.334 32.1645ZM219.609 33.6629H226.269C231.097 33.6629 234.261 34.6619 236.259 36.3269C237.757 37.6589 238.923 40.3228 238.923 42.6538C238.923 45.9837 237.757 48.4811 235.759 50.1461C233.262 52.3106 229.266 53.143 224.438 53.143H217.445V35.9939C217.611 34.1624 217.944 33.6629 219.609 33.6629ZM192.304 40.1563C191.471 47.4822 188.474 49.1471 184.145 49.6466V51.1451H189.307V73.9551C189.307 79.4495 192.637 80.948 196.133 80.948C198.964 80.948 201.128 80.1155 202.96 78.4506L201.961 76.9521C200.629 77.9511 199.297 78.6171 197.632 78.6171C195.134 78.6171 194.302 76.9521 194.302 73.6222V51.1451H201.628V48.9806H194.302V40.1563H192.304ZM143.52 48.1481C139.025 48.1481 135.695 49.4801 133.031 51.9776C130.2 54.6415 128.868 58.9704 128.868 64.4648C128.868 70.7917 130.533 74.9541 133.197 77.6181C136.028 80.1155 139.358 80.948 143.52 80.948C147.849 80.948 151.179 79.949 154.009 77.4516C156.673 74.9541 158.338 70.7917 158.338 64.4648C158.338 58.9704 156.673 54.808 154.009 51.9776C151.179 49.4801 148.016 48.1481 143.52 48.1481ZM264.73 48.1481C261.067 48.1481 258.736 48.9806 256.904 50.1461C254.74 51.4781 253.242 53.3095 253.242 54.9745C253.242 55.9735 253.908 57.139 255.24 57.139C256.738 57.139 257.404 56.473 257.737 55.474C258.403 53.9755 258.902 52.8101 259.901 52.1441C261.233 51.1451 262.565 50.6456 264.563 50.6456C266.894 50.6456 268.559 51.3116 269.558 52.8101C270.391 53.9755 270.724 55.9735 270.724 57.6385V60.6354L266.728 61.4679C262.232 62.4669 258.736 63.9653 256.405 65.4638C253.408 67.4618 252.076 69.9592 252.076 73.1227C252.076 75.7866 253.075 77.6181 254.74 78.9501C256.571 80.4485 258.902 81.1145 261.067 81.1145C265.729 81.1145 268.393 79.616 270.724 77.2851H271.057C271.723 79.616 273.221 80.7815 275.552 80.7815C277.384 80.7815 278.549 80.4485 279.715 79.949L279.382 78.2841C278.882 78.6171 278.216 78.7836 277.55 78.7836C276.218 78.7836 275.386 77.4516 275.386 74.2881V57.9715C275.386 54.9745 274.886 52.9766 273.055 50.9786C271.223 48.9806 268.892 48.1481 264.73 48.1481ZM290.37 48.1481C288.039 49.8131 285.708 50.4791 282.711 50.9786V52.4771C286.374 52.4771 286.707 52.9766 286.707 56.9725V73.7886C286.707 77.9511 286.374 78.2841 282.711 78.2841V79.949H294.866V78.2841C291.536 78.2841 291.536 77.9511 291.536 73.7886V57.139C294.366 53.3095 297.53 50.6456 300.36 50.6456C302.192 50.6456 303.524 51.1451 304.356 52.1441C305.688 53.476 305.855 55.6405 305.855 58.4709V73.9551C305.855 78.1176 305.688 78.4506 302.358 78.4506V80.1155H314.179V78.4506C311.016 78.4506 310.849 77.9511 310.849 73.9551V57.9715C310.849 54.3085 310.017 51.8111 308.352 50.3126C306.854 48.8141 304.689 48.1481 301.692 48.1481C297.863 48.1481 294.2 50.3126 291.536 53.9755H291.369L291.036 48.6476L290.37 48.1481ZM143.354 50.4791C146.351 50.4791 148.682 51.4781 150.347 53.3095C152.178 55.807 153.177 59.1369 153.177 64.6313C153.177 70.2922 151.845 73.7887 150.18 75.9531C148.515 77.7846 146.351 78.9501 143.52 78.9501C140.69 78.9501 138.359 77.7846 136.694 75.9531C135.029 73.7887 133.863 70.1257 133.863 64.6313C133.863 59.3034 134.862 55.807 136.694 53.3095C138.359 51.3116 140.523 50.4791 143.354 50.4791ZM217.611 55.807H226.269C231.93 55.807 235.926 56.806 238.257 58.6374C240.754 60.4689 242.086 63.1329 242.086 66.2963C242.086 69.9592 241.087 72.6232 239.422 74.2881C237.091 76.7856 233.928 77.6181 228.933 77.6181H220.275C218.111 77.6181 217.611 77.1186 217.611 74.2881V55.807ZM270.557 62.4669V74.7876C268.892 76.4526 266.561 78.4506 263.065 78.4506C260.9 78.4506 259.402 77.7846 258.403 76.7856C257.404 75.7866 256.904 74.2881 256.904 72.4567C256.904 69.2932 258.736 67.2953 261.4 65.9633C264.064 64.2983 267.56 63.2994 270.557 62.4669Z" fill="#ABABAB"/>
</g>
<defs>
<clipPath id="clip0_2308_9501">
<rect width="350" height="100" fill="white"/>
</clipPath>
</defs>
</svg>
