<svg width="222" height="100" viewBox="0 0 222 100" fill="none" xmlns="http://www.w3.org/2000/svg">
<g clip-path="url(#clip0_2308_9518)">
<path d="M80.6557 43.6991C80.6557 43.6991 105.408 25.9161 144.18 25.7496C180.135 25.5969 186.077 37.0496 196.932 40.7283C196.932 40.7283 191.657 48.8078 188.909 54.0968C186.16 59.3859 170.418 78.9875 152.121 84.9291C152.121 84.9291 178.094 63.1064 182.037 46.656C182.037 46.656 144.736 18.2948 80.3364 43.9907" fill="white"/>
<path opacity="0.6" d="M124.051 25.5827C182.356 10.8121 206.775 38.854 206.775 38.854C200.276 51.5312 190.654 62.3431 178.816 70.2692C194.475 68.4923 209.065 52.2225 212.133 47.1C215.201 41.9775 220.685 34.3701 220.685 34.3701C210.801 29.9 202.458 17.7115 170.806 14.6297C148.178 12.4224 124.162 25.5688 124.162 25.5688" fill="white"/>
<path d="M30.444 79.5707V58.6364C30.2181 55.7223 30.1486 52.7983 30.2358 49.8768H30.1525L20.2962 79.1819H15.5623L5.4978 50.0295H5.37286C5.37286 53.264 5.51168 57.6924 5.4978 58.7475V79.5707H1V44.0186H7.66341L17.9223 74.0178H18.0195L27.973 44.435H34.914V79.5707H30.444Z" fill="white"/>
<path d="M45.7559 61.5234C46.0475 59.5522 46.7277 56.5814 51.6003 56.5536C55.6816 56.5536 57.6391 57.9418 57.6668 60.7182C57.6946 63.4947 56.459 63.6613 55.4179 63.7584L48.3241 64.6608C41.2026 65.5909 40.5779 70.5746 40.5918 72.7263C40.5918 77.1131 43.9513 80.0838 48.6434 80.0699C50.3952 80.1205 52.1354 79.7719 53.7324 79.0504C55.3294 78.3288 56.7413 77.2533 57.8611 75.9053C58.0277 77.8766 58.6247 79.82 62.4423 79.8062C63.2437 79.7492 64.0333 79.581 64.7883 79.3064V76.1691C64.3336 76.2821 63.8684 76.3472 63.4001 76.3634C62.5255 76.3634 62.0119 75.9469 62.0119 74.8502L61.9425 60.1352C61.9425 53.569 54.4878 53.0137 52.4332 53.0137C46.1307 53.0137 42.0633 55.4569 41.8828 61.5789L45.7559 61.5234ZM57.4447 70.3663C57.4447 73.8091 53.4883 76.405 49.4763 76.4189C46.214 76.4189 44.7842 74.7947 44.7703 71.9905C44.7703 68.7699 48.1298 68.1035 50.3232 67.8259C55.6817 67.104 56.7645 66.7431 57.4724 66.1878L57.4447 70.3663Z" fill="white"/>
<path d="M83.6818 60.7873C83.6818 59.163 83.0293 56.4561 77.5181 56.4838C76.1299 56.4838 72.3817 56.9558 72.3817 60.1487C72.3817 62.2727 73.77 62.7585 77.1017 63.5637L81.4607 64.6326C86.8608 65.9375 88.7766 67.8949 88.7766 71.3932C88.7766 76.7101 84.4037 79.9169 78.5454 79.9447C68.2865 79.9447 67.523 74.1003 67.4397 71.0046H71.6043C71.757 73.0175 72.3679 76.252 78.5454 76.2104C81.655 76.2104 84.4731 74.9749 84.4592 72.0457C84.4592 70.0051 83.071 69.2693 79.295 68.3947L74.2281 67.1731C70.6326 66.3124 68.2449 64.5216 68.2032 60.9816C68.2032 55.3038 72.9093 52.6523 77.9901 52.6523C87.2356 52.6523 87.9436 59.413 87.9436 60.6763L83.6818 60.7873Z" fill="white"/>
<path d="M97.7447 61.176C98.0223 59.2047 98.6886 56.2062 103.575 56.1784C107.615 56.1784 109.586 57.65 109.586 60.3431C109.586 63.0362 108.392 63.3 107.351 63.3694L100.271 64.2856C93.1774 65.1879 92.5388 70.2133 92.5527 72.3234C92.5527 76.7518 95.8983 79.6948 100.59 79.6948C102.34 79.7412 104.076 79.3905 105.671 78.6692C107.265 77.9479 108.675 76.8747 109.794 75.5302C109.947 77.4875 110.53 79.4588 114.348 79.4171C115.145 79.3703 115.93 79.2065 116.68 78.9312V75.7939C116.223 75.8993 115.759 75.9688 115.292 76.0021C114.431 76.0021 113.903 75.5579 113.903 74.4751V59.7461C113.903 53.1937 106.477 52.6523 104.422 52.6523C98.1333 52.6523 94.0937 55.0956 93.9271 61.2038L97.7447 61.176ZM109.35 70.1855C109.35 73.6144 105.435 76.2381 101.382 76.252C98.1195 76.252 96.7035 74.6139 96.6757 71.8375C96.6757 68.589 100.063 67.9505 102.229 67.6728C107.601 66.9648 108.684 66.5622 109.364 66.0069L109.35 70.1855Z" fill="white"/>
<path d="M142.098 79.168H137.933V63.2036C137.753 58.7613 136.448 56.4985 132.2 56.5262C129.743 56.5262 125.426 58.1227 125.676 65.0637V79.168H121.178L121.081 53.4027H124.857V57.0954H124.954C125.796 55.7626 126.956 54.6602 128.33 53.8871C129.704 53.1141 131.249 52.6948 132.825 52.667C136.865 52.667 141.959 54.2635 141.987 61.621L142.098 79.168Z" fill="white"/>
<path d="M49.7123 87.6915C49.7676 87.8432 49.8003 88.0022 49.8095 88.1635C49.8137 88.2826 49.7924 88.4012 49.7469 88.5114C49.7014 88.6215 49.6328 88.7207 49.5457 88.8021C49.3511 88.9791 49.1005 89.0822 48.8377 89.0936L48.088 88.8437C47.6716 88.7049 47.3245 88.5985 47.0469 88.5244C46.7796 88.4531 46.5044 88.4158 46.2278 88.4134C45.4889 88.3937 44.7666 88.6345 44.1872 89.0936C43.6174 89.5621 43.1776 90.1692 42.91 90.8566C42.6182 91.5819 42.4538 92.3521 42.4242 93.1333C42.413 94.2945 42.6796 95.4415 43.2015 96.4789C43.449 96.9791 43.8249 97.4046 44.2908 97.7119C44.7567 98.0193 45.2958 98.1974 45.853 98.228C45.977 98.206 46.1039 98.206 46.2278 98.228L46.8248 98.1447L47.3384 98.006L47.8521 97.7977L48.3241 97.6172C48.4964 97.5281 48.6856 97.4761 48.8793 97.4645C48.99 97.4627 49.0996 97.4854 49.2004 97.531C49.3012 97.5766 49.3907 97.644 49.4624 97.7283C49.6231 97.9122 49.7075 98.1505 49.6984 98.3946C49.7037 98.7233 49.5923 99.0433 49.3838 99.2975C49.1754 99.5517 48.8835 99.7237 48.5601 99.7828C47.8032 100.033 47.0111 100.159 46.214 100.158C45.0959 100.183 43.9951 99.8792 43.0489 99.2831C42.1472 98.7012 41.426 97.879 40.9665 96.9092C40.4745 95.8914 40.2138 94.7774 40.203 93.6469C40.1986 92.7424 40.3153 91.8413 40.5501 90.9677C40.7621 90.1559 41.1196 89.3892 41.6051 88.7049C42.0905 88.037 42.7282 87.4944 43.4653 87.1223C44.2897 86.7139 45.1968 86.5002 46.1168 86.4976C46.9105 86.4805 47.7006 86.6076 48.449 86.8725C48.953 87.0132 49.3969 87.3156 49.7123 87.7331" fill="white"/>
<path d="M53.5298 93.3134C53.5106 94.505 53.8127 95.6798 54.4044 96.7144C54.6746 97.2061 55.0792 97.6108 55.5708 97.8812C56.0624 98.1516 56.6208 98.2766 57.1808 98.2415C57.9223 98.2648 58.6487 98.0291 59.2354 97.5751C59.8031 97.1109 60.2269 96.4946 60.457 95.7982C60.7311 95.0027 60.8764 94.1685 60.8873 93.3272C60.8962 92.4853 60.7552 91.6486 60.4709 90.8562C60.2287 90.1585 59.8016 89.5396 59.2354 89.0654C58.6686 88.6143 57.9605 88.3782 57.2364 88.399C56.5171 88.3806 55.8127 88.6056 55.2373 89.0376C54.6586 89.4946 54.2207 90.1058 53.9741 90.8007C53.6787 91.6098 53.5329 92.4659 53.5437 93.3272M51.3365 93.3272C51.3158 92.1146 51.5722 90.9135 52.0861 89.815C52.5454 88.8224 53.2711 87.9767 54.1823 87.3718C55.1 86.7811 56.1715 86.474 57.2628 86.4888C58.3541 86.5036 59.4168 86.8397 60.3182 87.4551C61.2106 88.0895 61.9154 88.9527 62.3588 89.9538C62.8356 91.014 63.0771 92.1648 63.0668 93.3272C63.0792 94.5032 62.8377 95.668 62.3588 96.7422C61.9218 97.7435 61.2154 98.6037 60.3182 99.2271C59.3912 99.8316 58.3083 100.154 57.2016 100.154C56.0949 100.154 55.0121 99.8316 54.0851 99.2271C53.1838 98.5986 52.473 97.7341 52.0306 96.7283C51.554 95.6632 51.3125 94.5079 51.3226 93.3411" fill="white"/>
<path d="M65.5935 87.9964C65.5856 87.8495 65.6074 87.7025 65.6574 87.5642C65.7075 87.4259 65.7849 87.299 65.885 87.1912C65.9788 87.0955 66.0913 87.0202 66.2155 86.97C66.3397 86.9198 66.473 86.896 66.6069 86.8998C66.7428 86.8965 66.878 86.9206 67.0044 86.9707C67.1308 87.0208 67.2459 87.0958 67.3427 87.1912C67.4477 87.299 67.5291 87.4276 67.5817 87.5686C67.6343 87.7096 67.6569 87.8601 67.6481 88.0103V88.2046C68.0597 87.6615 68.5983 87.2278 69.2167 86.9414C69.8369 86.6468 70.5153 86.495 71.2019 86.4971C71.9903 86.4937 72.7674 86.6844 73.4647 87.0524C74.1758 87.4374 74.7595 88.021 75.1444 88.7321C75.5951 89.5863 75.8152 90.5433 75.783 91.5085V99.0049C75.7909 99.1447 75.7675 99.2845 75.7147 99.4142C75.6619 99.5438 75.5809 99.66 75.4776 99.7545C75.2744 99.9322 75.0116 100.026 74.7418 100.018C74.4807 100.025 74.227 99.9304 74.0338 99.7545C73.9356 99.6597 73.8588 99.5451 73.8085 99.4182C73.7583 99.2913 73.7357 99.1552 73.7423 99.0188V91.578C73.7666 91.1495 73.6986 90.7208 73.5429 90.3208C73.3872 89.9209 73.1475 89.559 72.84 89.2596C72.2584 88.7126 71.4865 88.4138 70.6882 88.4268C70.1619 88.4216 69.6424 88.5456 69.1751 88.7877C68.6974 89.0352 68.3019 89.4162 68.0368 89.8844C67.7386 90.413 67.5898 91.0129 67.6064 91.6196V98.6301C67.6165 98.7782 67.5971 98.9268 67.5495 99.0674C67.5018 99.2079 67.4268 99.3377 67.3288 99.4492C67.2377 99.5445 67.1276 99.6197 67.0057 99.6699C66.8837 99.7201 66.7526 99.7443 66.6208 99.7407C66.4817 99.7432 66.3435 99.7174 66.2146 99.6649C66.0858 99.6124 65.9689 99.5343 65.8712 99.4353C65.7647 99.3308 65.6813 99.2051 65.6263 99.0664C65.5713 98.9278 65.546 98.7791 65.5519 98.6301L65.5935 87.9964Z" fill="white"/>
<path d="M78.4345 98.6579C78.2609 98.5351 78.1162 98.3758 78.0107 98.1912C77.9052 98.0065 77.8414 97.8009 77.8237 97.589C77.8237 97.3347 77.9234 97.0905 78.1014 96.9088C78.1872 96.8142 78.2923 96.7391 78.4097 96.6888C78.5271 96.6385 78.6539 96.6142 78.7816 96.6173C79.0059 96.625 79.225 96.6868 79.4202 96.7977C79.693 96.9544 79.9572 97.126 80.2115 97.3114C80.4241 97.4761 80.6518 97.6202 80.8917 97.7418C81.4642 98.0514 82.1013 98.2226 82.7519 98.2415C83.4128 98.2529 84.0663 98.1003 84.6538 97.7973C84.9131 97.6726 85.1302 97.4747 85.2783 97.228C85.4263 96.9812 85.4987 96.6965 85.4867 96.4091C85.4819 96.0716 85.378 95.743 85.188 95.4641C84.9979 95.1852 84.7301 94.9683 84.4177 94.8404C83.8004 94.4872 83.155 94.1853 82.4881 93.938C81.5626 93.5678 80.8454 93.2531 80.3364 92.994C79.8016 92.7303 79.3285 92.3566 78.9482 91.8974C78.5478 91.3937 78.341 90.7633 78.3652 90.1204C78.3623 89.4741 78.5506 88.8414 78.9065 88.3018C79.2844 87.7076 79.8172 87.2277 80.4475 86.9136C81.1582 86.5687 81.9344 86.3794 82.7241 86.3584C83.5336 86.3577 84.337 86.4987 85.098 86.7748C85.717 86.9666 86.2924 87.2778 86.7916 87.691C87.0951 87.9512 87.2845 88.3201 87.3191 88.7184C87.3175 88.8413 87.2908 88.9625 87.2407 89.0747C87.1906 89.1869 87.118 89.2876 87.0276 89.3708C86.8427 89.558 86.596 89.6715 86.3335 89.6901C85.9002 89.5509 85.4853 89.3598 85.098 89.1209C84.5566 88.8155 84.1679 88.5934 83.9041 88.4823C83.6019 88.3496 83.2762 88.2789 82.9462 88.2741C82.3159 88.2292 81.6891 88.4005 81.1693 88.76C80.9826 88.9007 80.8288 89.0804 80.7185 89.2866C80.6082 89.4927 80.5442 89.7204 80.5308 89.9538C80.6055 90.3555 80.8104 90.7214 81.1138 90.995C81.4335 91.2924 81.7991 91.5361 82.1966 91.7169C82.6038 91.902 83.0989 92.0917 83.682 92.286C84.265 92.4804 84.6676 92.6331 84.8897 92.7303C85.7059 93.0097 86.4403 93.4866 87.0276 94.1185C87.4686 94.6792 87.6995 95.3767 87.6801 96.0898C87.6592 96.7645 87.4578 97.4212 87.097 97.9916C86.685 98.598 86.1133 99.0785 85.445 99.3798C84.5755 99.7802 83.6255 99.975 82.6686 99.949C81.0845 100.008 79.5339 99.4844 78.3096 98.4775" fill="white"/>
<path d="M89.7068 87.5665C89.6986 87.4238 89.7203 87.2809 89.7705 87.147C89.8207 87.0132 89.8983 86.8913 89.9983 86.7891C90.0925 86.6941 90.2051 86.6192 90.3292 86.5691C90.4533 86.519 90.5864 86.4946 90.7202 86.4976C90.855 86.4933 90.9894 86.5156 91.1156 86.5633C91.2419 86.6109 91.3575 86.6829 91.4559 86.7753C91.5591 86.8757 91.6398 86.997 91.6924 87.131C91.7451 87.2651 91.7686 87.4088 91.7613 87.5526V94.8408C91.709 95.7662 91.9952 96.679 92.5665 97.4089C92.8715 97.7395 93.247 97.9973 93.6651 98.1631C94.0832 98.3289 94.5333 98.3985 94.982 98.3668C97.1846 98.3668 98.2859 97.1961 98.2859 94.8547V87.6081C98.2777 87.4654 98.2995 87.3226 98.3497 87.1887C98.3999 87.0549 98.4774 86.9329 98.5775 86.8308C98.6701 86.7374 98.7804 86.6635 98.902 86.6134C99.0236 86.5634 99.1539 86.5382 99.2854 86.5393C99.4203 86.535 99.5547 86.5572 99.6809 86.6049C99.8072 86.6525 99.9228 86.7245 100.021 86.8169C100.124 86.9173 100.205 87.0386 100.258 87.1726C100.31 87.3067 100.334 87.4505 100.327 87.5943V94.9518C100.334 95.843 100.145 96.7247 99.7713 97.5339C99.3925 98.3372 98.7774 99.0056 98.0083 99.4496C97.0678 99.9726 96.0017 100.227 94.9265 100.185C93.9035 100.224 92.8898 99.9789 91.9973 99.4774C91.2406 99.0327 90.6358 98.3697 90.262 97.5755C89.8851 96.7577 89.6954 95.8662 89.7068 94.9657V87.5665Z" fill="white"/>
<path d="M103.2 87.6363C103.196 87.4991 103.222 87.3625 103.274 87.2357C103.327 87.1089 103.406 86.9947 103.506 86.9006C103.707 86.7083 103.977 86.6034 104.255 86.6091C104.386 86.6037 104.517 86.6257 104.639 86.6735C104.76 86.7212 104.871 86.7939 104.963 86.8867C105.164 87.1211 105.264 87.4256 105.241 87.7335V88.15H106.546C106.901 87.6405 107.378 87.2277 107.933 86.9489C108.488 86.6701 109.104 86.5343 109.725 86.5536C110.435 86.5815 111.122 86.8067 111.711 87.2039C112.299 87.6012 112.765 88.1548 113.057 88.8025C113.5 88.0806 114.115 87.4797 114.847 87.0533C115.504 86.716 116.233 86.5444 116.971 86.5536C117.717 86.5647 118.445 86.7755 119.081 87.1643C119.736 87.572 120.265 88.1535 120.609 88.8441C121.003 89.6365 121.199 90.5133 121.178 91.3984V99.1446C121.186 99.2906 121.163 99.4368 121.11 99.5732C121.058 99.7097 120.977 99.8333 120.872 99.9359C120.775 100.031 120.66 100.105 120.534 100.155C120.407 100.205 120.272 100.23 120.137 100.227C120.006 100.226 119.878 100.198 119.758 100.145C119.639 100.093 119.532 100.017 119.442 99.922C119.341 99.82 119.262 99.6985 119.21 99.5648C119.157 99.4312 119.132 99.2881 119.137 99.1446V91.4539C119.151 90.8718 119.022 90.2951 118.762 89.7741C118.542 89.3302 118.194 88.9627 117.763 88.7192C117.336 88.4888 116.859 88.3695 116.375 88.3721C115.608 88.3455 114.86 88.6081 114.278 89.1078C113.978 89.4153 113.748 89.7844 113.604 90.1894C113.46 90.5944 113.406 91.0259 113.445 91.4539V99.0891C113.453 99.2227 113.429 99.3563 113.376 99.4792C113.323 99.6021 113.242 99.7109 113.14 99.7971C112.933 99.9663 112.672 100.055 112.404 100.047C112.15 100.051 111.903 99.9623 111.71 99.7971C111.61 99.7117 111.531 99.605 111.478 99.4849C111.425 99.3647 111.4 99.2342 111.405 99.103V91.6899C111.444 91.2204 111.387 90.7477 111.237 90.3012C111.086 89.8546 110.846 89.4438 110.53 89.0939C110.24 88.8178 109.898 88.6019 109.524 88.459C109.15 88.316 108.751 88.2487 108.351 88.261C107.813 88.2745 107.284 88.3973 106.796 88.622C106.33 88.8444 105.943 89.2025 105.685 89.6492C105.387 90.1925 105.243 90.8069 105.269 91.4261V99.1585C105.276 99.3044 105.253 99.4503 105.2 99.5866C105.148 99.7229 105.067 99.8467 104.963 99.9498C104.868 100.044 104.755 100.118 104.632 100.168C104.508 100.218 104.375 100.243 104.242 100.241C104.109 100.241 103.978 100.214 103.856 100.162C103.734 100.109 103.624 100.032 103.534 99.9359C103.432 99.8344 103.352 99.713 103.299 99.5792C103.247 99.4454 103.223 99.3021 103.228 99.1585L103.2 87.6363Z" fill="white"/>
<path d="M125.273 92.6471H132.797C132.827 91.5784 132.483 90.5328 131.825 89.6902C131.507 89.3191 131.11 89.0232 130.664 88.8239C130.217 88.6247 129.732 88.5271 129.243 88.538C128.743 88.5162 128.244 88.6014 127.779 88.7882C127.315 88.9749 126.896 89.2588 126.55 89.6208C125.825 90.4604 125.434 91.5378 125.453 92.6471M123.246 93.2996C123.288 92.1761 123.552 91.0721 124.023 90.0512C124.472 89.0613 125.171 88.2051 126.05 87.5663C126.956 86.9461 128.027 86.6143 129.125 86.6143C130.223 86.6143 131.294 86.9461 132.2 87.5663C133.096 88.192 133.81 89.0447 134.268 90.0373C134.751 91.0376 135.002 92.1335 135.004 93.244C135.004 93.9659 134.597 94.3269 133.782 94.3269H125.453C125.442 95.1135 125.638 95.8893 126.022 96.5758C126.36 97.1723 126.868 97.6554 127.48 97.964C128.11 98.2733 128.805 98.4302 129.507 98.4221C130.83 98.4114 132.104 97.9177 133.088 97.0339C133.325 96.8274 133.612 96.6883 133.921 96.6313C134.031 96.6279 134.141 96.6514 134.24 96.6998C134.339 96.7482 134.425 96.82 134.49 96.9089C134.629 97.0982 134.702 97.3271 134.699 97.5614C134.692 97.8593 134.578 98.1448 134.379 98.3665C133.787 98.9662 133.078 99.4386 132.297 99.7547C131.381 100.147 130.393 100.346 129.396 100.338C128.435 100.354 127.484 100.145 126.619 99.727C125.855 99.3478 125.194 98.7907 124.69 98.1028C124.207 97.4405 123.845 96.698 123.621 95.9095C123.396 95.1328 123.275 94.33 123.26 93.5217V93.4384" fill="white"/>
<path d="M137.17 87.8996C137.157 87.599 137.261 87.305 137.462 87.0805C137.554 86.9816 137.665 86.9033 137.79 86.8506C137.914 86.798 138.048 86.7723 138.183 86.7751C138.32 86.7729 138.457 86.7989 138.583 86.8514C138.71 86.9039 138.824 86.9819 138.919 87.0805C139.024 87.1914 139.105 87.3224 139.158 87.4656C139.21 87.6088 139.233 87.7612 139.225 87.9135V89.0379C139.537 88.4515 139.945 87.9213 140.432 87.4693C140.849 87.0417 141.406 86.7801 142.001 86.7335C142.305 86.7304 142.598 86.8449 142.82 87.0528C142.935 87.153 143.026 87.2768 143.089 87.4158C143.151 87.5548 143.183 87.7056 143.181 87.8579C143.194 88.0158 143.168 88.1745 143.105 88.3199C143.042 88.4652 142.944 88.5927 142.82 88.6909C142.498 88.9036 142.141 89.0586 141.765 89.149C141.454 89.2225 141.151 89.3296 140.863 89.4683C140.302 89.8127 139.848 90.3074 139.554 90.8962C139.259 91.4851 139.136 92.1445 139.197 92.8V99.2691C139.216 99.5723 139.117 99.8711 138.919 100.102C138.828 100.197 138.718 100.273 138.596 100.323C138.474 100.373 138.343 100.397 138.211 100.394C138.072 100.397 137.934 100.371 137.805 100.319C137.676 100.266 137.559 100.188 137.462 100.088C137.355 99.9701 137.273 99.8318 137.221 99.6816C137.168 99.5314 137.146 99.3723 137.156 99.2136L137.17 87.8996Z" fill="white"/>
</g>
<defs>
<clipPath id="clip0_2308_9518">
<rect width="222" height="100" fill="white"/>
</clipPath>
</defs>
</svg>
