<svg width="222" height="100" viewBox="0 0 222 100" fill="none" xmlns="http://www.w3.org/2000/svg">
<path fill-rule="evenodd" clip-rule="evenodd" d="M107.239 13.2762C95.2445 14.6725 86.3073 21.7812 82.5939 32.879C79.9335 40.8291 80.0192 50.4503 82.8186 58.1339L83.7847 60.786L86.0908 61.8271C90.5845 63.856 92.9357 64.3119 98.9176 64.3155C104.632 64.3192 106.725 63.9581 110.932 62.2428L112.73 61.5097L110.937 61.2859C103.413 60.3457 99.7318 54.2549 100.242 43.5886C100.624 35.5907 102.818 30.7017 106.98 28.5704C109.069 27.5006 112.746 27.2673 115.226 28.0474C117.491 28.7601 119.641 30.6974 120.849 33.1145L121.774 34.9658L130.845 34.9152C135.833 34.8877 139.976 34.8042 140.05 34.7301C140.359 34.4218 138.756 29.3794 137.614 27.0657C132.665 17.0377 120.881 11.688 107.239 13.2762ZM114.165 48.0104V54.4144H118.434C120.783 54.4144 122.704 54.5361 122.704 54.6846C122.704 55.2634 120.161 58.7206 118.551 60.3307C114.467 64.4143 108.982 66.7439 101.967 67.3742C99.3699 67.6075 94.6925 67.169 90.2652 66.2773C88.6093 65.9437 87.1974 65.7281 87.1276 65.7979C86.837 66.0885 90.8742 69.7986 92.9701 71.1666C97.8838 74.3744 102.896 75.7753 109.591 75.8116C116.813 75.8509 121.915 74.1017 126.403 70.0474C127.691 68.8837 127.7 68.8941 128.04 71.7966C128.394 74.811 127.732 74.5412 134.77 74.5412H141.001V58.0738V41.6064H127.583H114.165V48.0104ZM40.2145 85.3642C40.0468 85.4203 39.5348 85.5487 39.0764 85.6496C37.9014 85.9085 36.1019 87.5812 35.4466 89.0236C34.7708 90.5115 34.6912 93.9364 35.299 95.3907C35.6744 96.2888 35.9132 96.4376 37.4846 96.7532C39.7955 97.2173 40.0263 97.2012 39.2133 96.6315C38.1533 95.8893 37.6224 94.5515 37.623 92.6248C37.6236 89.6579 39.1295 87.6288 41.3776 87.565C42.7127 87.5272 43.8297 88.0889 44.3493 89.0599C44.6683 89.6561 44.9797 89.7887 46.0601 89.7887C47.4446 89.7887 47.6044 89.574 47.0387 88.4726C45.9052 86.2668 42.3559 84.65 40.2145 85.3642ZM56.2595 85.6722C52.7373 86.7706 50.9439 91.4205 52.4244 95.6163C53.3683 98.2917 55.3282 99.5472 58.561 99.5472C62.7672 99.5472 65.0647 97.0697 65.0647 92.5333C65.0647 89.9601 64.5557 88.572 63.098 87.1677C61.1976 85.337 58.9266 84.8406 56.2595 85.6722ZM141.811 85.6594C138.866 86.7093 137.291 89.9461 137.788 93.926C138.062 96.1189 138.635 96.7337 140.639 96.9865L142.259 97.1911L141.52 96.1015C139.783 93.5418 140.317 89.2535 142.516 88.1167C144.256 87.2165 146.443 87.8947 146.95 89.4917C147.102 89.9717 147.415 90.0937 148.493 90.0937C150.003 90.0937 150.166 89.7692 149.398 88.285C148.094 85.764 144.757 84.6088 141.811 85.6594ZM69.6423 92.3808V99.2422H74.5215H79.4007V98.1749V97.1076H75.8938H72.3869V91.3135V85.5194H71.0146H69.6423V92.3808ZM83.67 92.3677V99.2895L87.7659 99.1895C92.5237 99.0736 93.0787 98.8324 94.3433 96.3293C94.9786 95.0723 95.1057 94.3877 95.1057 92.2283C95.1057 90.026 94.9911 89.4338 94.3433 88.2896C93.1626 86.2037 91.9318 85.721 87.4152 85.5703L83.67 85.4459V92.3677ZM99.8325 92.3732V99.2422H105.017H110.201V98.1749V97.1076H106.222H102.243L102.334 95.2016L102.425 93.2957L103.797 93.274C104.552 93.2621 106.095 93.2277 107.228 93.1978L109.286 93.1432V92.0759V91.0085H105.779H102.272V89.4838V87.959H106.102H109.933L109.838 86.8155L109.743 85.6719L104.788 85.588L99.8325 85.5042V92.3732ZM114.655 86.0018C114.553 86.2671 114.47 89.3548 114.47 92.8633V99.2422H115.835H117.199L117.283 94.3776L117.367 89.5131L120.111 94.3776L122.855 99.2422H124.304H125.753V92.3808V85.5194H124.534H123.314V90.4596C123.314 93.4686 123.204 95.2867 123.033 95.1101C122.879 94.951 121.568 92.7275 120.119 90.1699L117.484 85.5194H116.162C115.238 85.5194 114.785 85.6646 114.655 86.0018ZM154.114 92.3808V99.2422H155.486H156.858V92.3808V85.5194H155.486H154.114V92.3808ZM160.823 86.7279V87.959H162.805H164.787V93.6006V99.2422H166.159H167.532V93.6006V87.959H169.666H171.801V86.7642V85.5697L166.312 85.5334L160.823 85.4971V86.7279ZM174.85 85.6981C174.85 85.7963 175.88 87.7568 177.138 90.0546L179.425 94.2322V96.737V99.2422H180.797H182.169V96.8011V94.3596L184.483 89.9397L186.797 85.5194H185.289H183.782L182.322 88.6452L180.863 91.7709L179.397 88.6452L177.931 85.5194H176.391C175.544 85.5194 174.85 85.5999 174.85 85.6981ZM60.642 88.3152C61.7468 89.184 62.3235 90.631 62.3235 92.5333C62.3235 95.488 61.1146 97.1091 58.7433 97.3344C57.5641 97.4467 57.1274 97.343 56.4163 96.7813C55.2776 95.8826 54.6997 94.4527 54.6997 92.5333C54.6997 89.521 56.1583 87.6541 58.5116 87.6541C59.3731 87.6541 60.0808 87.8736 60.642 88.3152ZM91.2249 88.5701C92.5996 89.8509 92.8634 93.618 91.7144 95.563C91.0331 96.7163 90.1118 97.1076 88.0775 97.1076H86.4146V92.5333V87.959H88.4916C90.1487 87.959 90.7016 88.0825 91.2249 88.5701ZM41.8917 93.1432V94.363H43.5885H45.2852L44.582 95.6142C43.4967 97.5455 42.0585 98.1377 38.9303 97.9425C37.5401 97.8559 36.4026 97.8327 36.4026 97.891C36.4026 98.2316 39.199 99.5484 40.2953 99.7237C41.8015 99.9643 43.9166 99.2919 44.8278 98.2828L45.3987 97.6501L45.5542 98.5225C45.6844 99.2529 45.8576 99.3947 46.6215 99.3947H47.5333L47.619 95.659L47.7047 91.9234H44.7982H41.8917V93.1432ZM146.77 95.6661C146.505 96.2073 145.819 96.9682 145.246 97.357C144.338 97.9727 143.902 98.0517 141.865 97.9669C139.883 97.8849 139.58 97.9355 139.882 98.2984C140.516 99.0602 142.157 99.5472 144.09 99.5472C146.568 99.5472 148.296 98.5887 149.205 96.7105C150.105 94.8524 150.045 94.6667 148.548 94.675C147.394 94.6811 147.2 94.7893 146.77 95.6661Z" fill="white"/>
</svg>
